<?xml version="1.0" encoding="UTF-8" standalone="no"?>
<!DOCTYPE svg PUBLIC "-//W3C//DTD SVG 1.1//EN"
"http://www.w3.org/Graphics/SVG/1.1/DTD/svg11.dtd">


<!-- Page 5 -->
<svg x="0" y="0" width="935" height="1210" viewBox="0 0 935 1210" version="1.1" xmlns="http://www.w3.org/2000/svg" xmlns:xlink="http://www.w3.org/1999/xlink"
style="display: block;margin-left: auto;margin-right: auto;">
<defs>
<clipPath id="c0_5"><path d="M194.2,123.4l0,-52.8l294.8,0l0,52.8Z" /></clipPath>
<clipPath id="c1_5"><path d="M649.9,123.4l0,-52.8l90.6,0l0,52.8Z" /></clipPath>
<clipPath id="c2_5"><path d="M194.2,176.9l0,-52.8l294.8,0l0,52.8Z" /></clipPath>
<clipPath id="c3_5"><path d="M649.9,176.9l0,-52.8l90.6,0l0,52.8Z" /></clipPath>
<clipPath id="c4_5"><path d="M194.2,230.4l0,-52.4L489,178l0,52.4Z" /></clipPath>
<clipPath id="c5_5"><path d="M649.9,230.4l0,-52.4l90.6,0l0,52.4Z" /></clipPath>
<clipPath id="c6_5"><path d="M194.2,284.3l0,-52.8l294.8,0l0,52.8Z" /></clipPath>
<clipPath id="c7_5"><path d="M649.9,284.3l0,-52.8l90.6,0l0,52.8Z" /></clipPath>
<clipPath id="c8_5"><path d="M194.2,337.9l0,-52.8l294.8,0l0,52.8Z" /></clipPath>
<clipPath id="c9_5"><path d="M649.9,337.9l0,-52.8l90.6,0l0,52.8Z" /></clipPath>
<clipPath id="c10_5"><path d="M194.2,391.4l0,-52.8l294.8,0l0,52.8Z" /></clipPath>
<clipPath id="c11_5"><path d="M649.9,391.4l0,-52.8l90.6,0l0,52.8Z" /></clipPath>
<clipPath id="c12_5"><path d="M194.2,444.9l0,-52.8l294.8,0l0,52.8Z" /></clipPath>
<clipPath id="c13_5"><path d="M649.9,444.9l0,-52.8l90.6,0l0,52.8Z" /></clipPath>
<clipPath id="c14_5"><path d="M194.2,498.5l0,-52.8l294.8,0l0,52.8Z" /></clipPath>
<clipPath id="c15_5"><path d="M649.9,498.5l0,-52.8l90.6,0l0,52.8Z" /></clipPath>
<clipPath id="c16_5"><path d="M194.2,552l0,-52.8l294.8,0l0,52.8Z" /></clipPath>
<clipPath id="c17_5"><path d="M649.9,552l0,-52.8l90.6,0l0,52.8Z" /></clipPath>
<clipPath id="c18_5"><path d="M194.2,605.5l0,-52.8l294.8,0l0,52.8Z" /></clipPath>
<clipPath id="c19_5"><path d="M649.9,605.5l0,-52.8l90.6,0l0,52.8Z" /></clipPath>
<clipPath id="c20_5"><path d="M194.2,659.1l0,-52.8l294.8,0l0,52.8Z" /></clipPath>
<clipPath id="c21_5"><path d="M649.9,659.1l0,-52.8l90.6,0l0,52.8Z" /></clipPath>
<clipPath id="c22_5"><path d="M194.2,712.6l0,-52.8l294.8,0l0,52.8Z" /></clipPath>
<clipPath id="c23_5"><path d="M649.9,712.6l0,-52.8l90.6,0l0,52.8Z" /></clipPath>
<clipPath id="c24_5"><path d="M194.2,766.1l0,-52.8l294.8,0l0,52.8Z" /></clipPath>
<clipPath id="c25_5"><path d="M649.9,766.1l0,-52.8l90.6,0l0,52.8Z" /></clipPath>
<clipPath id="c26_5"><path d="M194.2,819.7l0,-52.8l294.8,0l0,52.8Z" /></clipPath>
<clipPath id="c27_5"><path d="M649.9,819.7l0,-52.8l90.6,0l0,52.8Z" /></clipPath>
<clipPath id="c28_5"><path d="M194.2,873.2l0,-52.8l294.8,0l0,52.8Z" /></clipPath>
<clipPath id="c29_5"><path d="M649.9,873.2l0,-52.8l90.6,0l0,52.8Z" /></clipPath>
<clipPath id="c30_5"><path d="M194.2,926.7l0,-52.8l294.8,0l0,52.8Z" /></clipPath>
<clipPath id="c31_5"><path d="M649.9,926.7l0,-52.8l90.6,0l0,52.8Z" /></clipPath>
<clipPath id="c32_5"><path d="M194.2,980.3l0,-52.8l294.8,0l0,52.8Z" /></clipPath>
<clipPath id="c33_5"><path d="M649.9,980.3l0,-52.8l90.6,0l0,52.8Z" /></clipPath>
<clipPath id="c34_5"><path d="M194.2,1033.8l0,-52.8L489,981l0,52.8Z" /></clipPath>
<clipPath id="c35_5"><path d="M649.9,1033.8l0,-52.8l90.6,0l0,52.8Z" /></clipPath>
<clipPath id="c36_5"><path d="M194.2,1087.3l0,-52.8l294.8,0l0,52.8Z" /></clipPath>
<clipPath id="c37_5"><path d="M649.9,1087.3l0,-52.8l90.6,0l0,52.8Z" /></clipPath>
<clipPath id="c38_5"><path d="M194.2,1140.9l0,-52.8l294.8,0l0,52.8Z" /></clipPath>
<clipPath id="c39_5"><path d="M649.9,1140.9l0,-52.8l90.6,0l0,52.8Z" /></clipPath>

<style type="text/css"><![CDATA[

.g1_5{
}

.s1_5{
font-size: 22.73px;
font-family: Tahoma_a;
fill: TRANSPARENT;
}
text::-moz-selection {
	color: transparent;
	background: rgba(0, 106, 173, 0.4);
}
text::selection {
	color: transparent;
	background: rgba(0, 106, 173, 0.4);
}

]]></style>

</defs>
<path d="M0,0
L0,1210
L935,1210
L935,0 Z " 
fill="#FFFFFF" stroke="none" />
<g clip-path="url(#c0_5)">
<g fill="#000000" >
<use xlink:href="#f0_12" transform="matrix(14.9,0,0,14.9,306.9,106.1)" />
<use xlink:href="#f0_1r" transform="matrix(14.9,0,0,14.9,319.5,106.1)" />
<use xlink:href="#f0_1i" transform="matrix(14.9,0,0,14.9,327.8,106.1)" />
<use xlink:href="#f0_1v" transform="matrix(14.9,0,0,14.9,333.1,106.1)" />
<use xlink:href="#f0_1a" transform="matrix(14.9,0,0,14.9,344.5,106.1)" />
<use xlink:href="#f0_1t" transform="matrix(14.9,0,0,14.9,356.5,106.1)" />
<use xlink:href="#f0_1e" transform="matrix(14.9,0,0,14.9,364.1,106.1)" />
</g>
</g>
<text 
x="306" 
y="106" 
dx="0,0.1,0.1,0,0.1,0.1,0.1,0.1" 
class="s1_5"
>Private </text>

<g clip-path="url(#c1_5)">
<g fill="#000000" >
<use xlink:href="#f0_c" transform="matrix(14.9,0,0,14.9,682.8,106.1)" />
<use xlink:href="#f0_b" transform="matrix(14.9,0,0,14.9,695.3,106.1)" />
</g>
</g>
<text 
x="682" 
y="106" 
dx="0,0.1,0.1" 
class="s1_5"
>10 </text>

<path d="M193.4,70.6l0.8,0l0,-0.8l-0.8,0l0,0.8Z" class="g1_5" />
<path d="M193.4,70.6l0.8,0l0,-0.8l-0.8,0l0,0.8Z" class="g1_5" />
<path d="M194.2,70.6l294.8,0l0,-0.8l-294.8,0l0,0.8Z" class="g1_5" />
<path d="M489,70.6l0.7,0l0,-0.8l-0.7,0l0,0.8Z" class="g1_5" />
<path d="M489.7,70.6l159.5,0l0,-0.8l-159.5,0l0,0.8Z" class="g1_5" />
<path d="M649.2,70.6l0.7,0l0,-0.8l-0.7,0l0,0.8Z" class="g1_5" />
<path d="M649.9,70.6l90.6,0l0,-0.8l-90.6,0l0,0.8Z" class="g1_5" />
<path d="M740.5,70.6l0.7,0l0,-0.8l-0.7,0l0,0.8Z" class="g1_5" />
<path d="M740.5,70.6l0.7,0l0,-0.8l-0.7,0l0,0.8Z" class="g1_5" />
<path d="M193.4,123.4l0.8,0l0,-52.8l-0.8,0l0,52.8Z" class="g1_5" />
<path d="M489,123.4l0.7,0l0,-52.8l-0.7,0l0,52.8Z" class="g1_5" />
<path d="M649.2,123.4l0.7,0l0,-52.8l-0.7,0l0,52.8Z" class="g1_5" />
<path d="M740.5,123.4l0.7,0l0,-52.8l-0.7,0l0,52.8Z" class="g1_5" />
<g clip-path="url(#c2_5)">
<g fill="#000000" >
<use xlink:href="#f0_12" transform="matrix(14.9,0,0,14.9,252.3,159.7)" />
<use xlink:href="#f0_1r" transform="matrix(14.9,0,0,14.9,265,159.7)" />
<use xlink:href="#f0_1i" transform="matrix(14.9,0,0,14.9,273.2,159.7)" />
<use xlink:href="#f0_1v" transform="matrix(14.9,0,0,14.9,278.5,159.7)" />
<use xlink:href="#f0_1a" transform="matrix(14.9,0,0,14.9,289.9,159.7)" />
<use xlink:href="#f0_1t" transform="matrix(14.9,0,0,14.9,301.9,159.7)" />
<use xlink:href="#f0_1e" transform="matrix(14.9,0,0,14.9,309.6,159.7)" />
<use xlink:href="#f0_s" transform="matrix(14.9,0,0,14.9,328.8,159.7)" />
<use xlink:href="#f0_1i" transform="matrix(14.9,0,0,14.9,340.7,159.7)" />
<use xlink:href="#f0_1r" transform="matrix(14.9,0,0,14.9,346,159.7)" />
<use xlink:href="#f0_1s" transform="matrix(14.9,0,0,14.9,354.2,159.7)" />
<use xlink:href="#f0_1t" transform="matrix(14.9,0,0,14.9,364.5,159.7)" />
<use xlink:href="#f0_p" transform="matrix(14.9,0,0,14.9,379.3,159.7)" />
<use xlink:href="#f0_1l" transform="matrix(14.9,0,0,14.9,393,159.7)" />
<use xlink:href="#f0_1a" transform="matrix(14.9,0,0,14.9,398.3,159.7)" />
<use xlink:href="#f0_1s" transform="matrix(14.9,0,0,14.9,410.3,159.7)" />
<use xlink:href="#f0_1s" transform="matrix(14.9,0,0,14.9,420.5,159.7)" />
</g>
</g>
<text 
x="252" 
y="159" 
dx="0,0.1,0.1,0,0.1,0.1,0.1,0.1,0,0.1,0,0.1,0.1,0.1,0,0.1,0,0.1,0.1,0.1" 
class="s1_5"
>Private First Class </text>

<g clip-path="url(#c3_5)">
<g fill="#000000" >
<use xlink:href="#f0_d" transform="matrix(14.9,0,0,14.9,682.8,159.7)" />
<use xlink:href="#f0_b" transform="matrix(14.9,0,0,14.9,695.3,159.7)" />
</g>
</g>
<text 
x="682" 
y="159" 
dx="0,0.1,0.1" 
class="s1_5"
>20 </text>

<path d="M193.4,124.1l0.8,0l0,-0.7l-0.8,0l0,0.7Z" class="g1_5" />
<path d="M194.2,124.1l294.8,0l0,-0.7l-294.8,0l0,0.7Z" class="g1_5" />
<path d="M489,124.1l0.7,0l0,-0.7l-0.7,0l0,0.7Z" class="g1_5" />
<path d="M489.7,124.1l159.5,0l0,-0.7l-159.5,0l0,0.7Z" class="g1_5" />
<path d="M649.2,124.1l0.7,0l0,-0.7l-0.7,0l0,0.7Z" class="g1_5" />
<path d="M649.9,124.1l90.6,0l0,-0.7l-90.6,0l0,0.7Z" class="g1_5" />
<path d="M740.5,124.1l0.7,0l0,-0.7l-0.7,0l0,0.7Z" class="g1_5" />
<path d="M193.4,176.9l0.8,0l0,-52.8l-0.8,0l0,52.8Z" class="g1_5" />
<path d="M489,176.9l0.7,0l0,-52.8l-0.7,0l0,52.8Z" class="g1_5" />
<path d="M649.2,176.9l0.7,0l0,-52.8l-0.7,0l0,52.8Z" class="g1_5" />
<path d="M740.5,176.9l0.7,0l0,-52.8l-0.7,0l0,52.8Z" class="g1_5" />
<g clip-path="url(#c4_5)">
<g fill="#000000" >
<use xlink:href="#f0_p" transform="matrix(14.9,0,0,14.9,299,213.2)" />
<use xlink:href="#f0_1o" transform="matrix(14.9,0,0,14.9,312.8,213.2)" />
<use xlink:href="#f0_1r" transform="matrix(14.9,0,0,14.9,325.2,213.2)" />
<use xlink:href="#f0_1p" transform="matrix(14.9,0,0,14.9,333.5,213.2)" />
<use xlink:href="#f0_1o" transform="matrix(14.9,0,0,14.9,346.1,213.2)" />
<use xlink:href="#f0_1r" transform="matrix(14.9,0,0,14.9,358.6,213.2)" />
<use xlink:href="#f0_1a" transform="matrix(14.9,0,0,14.9,366.9,213.2)" />
<use xlink:href="#f0_1l" transform="matrix(14.9,0,0,14.9,378.9,213.2)" />
</g>
</g>
<text 
x="299" 
y="213" 
dx="0,0.1,0.1,0.1,0.1,0.1,0.1,0.1,0" 
class="s1_5"
>Corporal </text>

<g clip-path="url(#c5_5)">
<g fill="#000000" >
<use xlink:href="#f0_e" transform="matrix(14.9,0,0,14.9,682.8,213.2)" />
<use xlink:href="#f0_b" transform="matrix(14.9,0,0,14.9,695.3,213.2)" />
</g>
</g>
<text 
x="682" 
y="213" 
dx="0,0.1,0.1" 
class="s1_5"
>30 </text>

<path d="M193.4,177.6l0.8,0l0,-0.7l-0.8,0l0,0.7Z" class="g1_5" />
<path d="M194.2,177.6l294.8,0l0,-0.7l-294.8,0l0,0.7Z" class="g1_5" />
<path d="M489,177.6l0.7,0l0,-0.7l-0.7,0l0,0.7Z" class="g1_5" />
<path d="M489.7,177.6l159.5,0l0,-0.7l-159.5,0l0,0.7Z" class="g1_5" />
<path d="M649.2,177.6l0.7,0l0,-0.7l-0.7,0l0,0.7Z" class="g1_5" />
<path d="M649.9,177.6l90.6,0l0,-0.7l-90.6,0l0,0.7Z" class="g1_5" />
<path d="M740.5,177.6l0.7,0l0,-0.7l-0.7,0l0,0.7Z" class="g1_5" />
<path d="M193.4,230.4l0.8,0l0,-52.8l-0.8,0l0,52.8Z" class="g1_5" />
<path d="M489,230.4l0.7,0l0,-52.8l-0.7,0l0,52.8Z" class="g1_5" />
<path d="M649.2,230.4l0.7,0l0,-52.8l-0.7,0l0,52.8Z" class="g1_5" />
<path d="M740.5,230.4l0.7,0l0,-52.8l-0.7,0l0,52.8Z" class="g1_5" />
<g clip-path="url(#c6_5)">
<g fill="#000000" >
<use xlink:href="#f0_14" transform="matrix(14.9,0,0,14.9,296.4,266.7)" />
<use xlink:href="#f0_1e" transform="matrix(14.9,0,0,14.9,309.2,266.7)" />
<use xlink:href="#f0_1r" transform="matrix(14.9,0,0,14.9,321.2,266.7)" />
<use xlink:href="#f0_1g" transform="matrix(14.9,0,0,14.9,329.5,266.7)" />
<use xlink:href="#f0_1e" transform="matrix(14.9,0,0,14.9,342.2,266.7)" />
<use xlink:href="#f0_1a" transform="matrix(14.9,0,0,14.9,354.2,266.7)" />
<use xlink:href="#f0_1n" transform="matrix(14.9,0,0,14.9,366.3,266.7)" />
<use xlink:href="#f0_1t" transform="matrix(14.9,0,0,14.9,379,266.7)" />
</g>
</g>
<text 
x="296" 
y="266" 
dx="0,0.1,0.1,0.1,0.1,0.1,0.1,0.1,0.1" 
class="s1_5"
>Sergeant </text>

<g clip-path="url(#c7_5)">
<g fill="#000000" >
<use xlink:href="#f0_f" transform="matrix(14.9,0,0,14.9,682.8,266.7)" />
<use xlink:href="#f0_b" transform="matrix(14.9,0,0,14.9,695.3,266.7)" />
</g>
</g>
<text 
x="682" 
y="266" 
dx="0,0.1,0.1" 
class="s1_5"
>40 </text>

<path d="M193.4,231.2l0.8,0l0,-0.8l-0.8,0l0,0.8Z" class="g1_5" />
<path d="M194.2,231.2l294.8,0l0,-0.8l-294.8,0l0,0.8Z" class="g1_5" />
<path d="M489,231.2l0.7,0l0,-0.8l-0.7,0l0,0.8Z" class="g1_5" />
<path d="M489.7,231.2l159.5,0l0,-0.8l-159.5,0l0,0.8Z" class="g1_5" />
<path d="M649.2,231.2l0.7,0l0,-0.8l-0.7,0l0,0.8Z" class="g1_5" />
<path d="M649.9,231.2l90.6,0l0,-0.8l-90.6,0l0,0.8Z" class="g1_5" />
<path d="M740.5,231.2l0.7,0l0,-0.8l-0.7,0l0,0.8Z" class="g1_5" />
<path d="M193.4,284.3l0.8,0l0,-53.1l-0.8,0l0,53.1Z" class="g1_5" />
<path d="M489,284.3l0.7,0l0,-53.1l-0.7,0l0,53.1Z" class="g1_5" />
<path d="M649.2,284.3l0.7,0l0,-53.1l-0.7,0l0,53.1Z" class="g1_5" />
<path d="M740.5,284.3l0.7,0l0,-53.1l-0.7,0l0,53.1Z" class="g1_5" />
<g clip-path="url(#c8_5)">
<g fill="#000000" >
<use xlink:href="#f0_14" transform="matrix(14.9,0,0,14.9,269.3,320.3)" />
<use xlink:href="#f0_1t" transform="matrix(14.9,0,0,14.9,282.1,320.3)" />
<use xlink:href="#f0_1a" transform="matrix(14.9,0,0,14.9,289.7,320.3)" />
<use xlink:href="#f0_1f" transform="matrix(14.9,0,0,14.9,301.8,320.3)" />
<use xlink:href="#f0_1f" transform="matrix(14.9,0,0,14.9,309.1,320.3)" />
<use xlink:href="#f0_14" transform="matrix(14.9,0,0,14.9,323.5,320.3)" />
<use xlink:href="#f0_1e" transform="matrix(14.9,0,0,14.9,336.3,320.3)" />
<use xlink:href="#f0_1r" transform="matrix(14.9,0,0,14.9,348.3,320.3)" />
<use xlink:href="#f0_1g" transform="matrix(14.9,0,0,14.9,356.6,320.3)" />
<use xlink:href="#f0_1e" transform="matrix(14.9,0,0,14.9,369.3,320.3)" />
<use xlink:href="#f0_1a" transform="matrix(14.9,0,0,14.9,381.3,320.3)" />
<use xlink:href="#f0_1n" transform="matrix(14.9,0,0,14.9,393.3,320.3)" />
<use xlink:href="#f0_1t" transform="matrix(14.9,0,0,14.9,406.1,320.3)" />
</g>
</g>
<text 
x="269" 
y="320" 
dx="0,0.1,0.1,0.1,0.1,0.1,0,0.1,0.1,0.1,0.1,0.1,0.1,0.1,0.1" 
class="s1_5"
>Staff Sergeant </text>

<g clip-path="url(#c9_5)">
<g fill="#000000" >
<use xlink:href="#f0_g" transform="matrix(14.9,0,0,14.9,682.8,320.3)" />
<use xlink:href="#f0_b" transform="matrix(14.9,0,0,14.9,695.3,320.3)" />
</g>
</g>
<text 
x="682" 
y="320" 
dx="0,0.1,0.1" 
class="s1_5"
>50 </text>

<path d="M193.4,285.1l0.8,0l0,-0.8l-0.8,0l0,0.8Z" class="g1_5" />
<path d="M194.2,285.1l294.8,0l0,-0.8l-294.8,0l0,0.8Z" class="g1_5" />
<path d="M489,285.1l0.7,0l0,-0.8l-0.7,0l0,0.8Z" class="g1_5" />
<path d="M489.7,285.1l159.5,0l0,-0.8l-159.5,0l0,0.8Z" class="g1_5" />
<path d="M649.2,285.1l0.7,0l0,-0.8l-0.7,0l0,0.8Z" class="g1_5" />
<path d="M649.9,285.1l90.6,0l0,-0.8l-90.6,0l0,0.8Z" class="g1_5" />
<path d="M740.5,285.1l0.7,0l0,-0.8l-0.7,0l0,0.8Z" class="g1_5" />
<path d="M193.4,337.9l0.8,0l0,-52.8l-0.8,0l0,52.8Z" class="g1_5" />
<path d="M489,337.9l0.7,0l0,-52.8l-0.7,0l0,52.8Z" class="g1_5" />
<path d="M649.2,337.9l0.7,0l0,-52.8l-0.7,0l0,52.8Z" class="g1_5" />
<path d="M740.5,337.9l0.7,0l0,-52.8l-0.7,0l0,52.8Z" class="g1_5" />
<g clip-path="url(#c10_5)">
<g fill="#000000" >
<use xlink:href="#f0_14" transform="matrix(14.9,0,0,14.9,241.8,373.8)" />
<use xlink:href="#f0_1e" transform="matrix(14.9,0,0,14.9,254.6,373.8)" />
<use xlink:href="#f0_1r" transform="matrix(14.9,0,0,14.9,266.7,373.8)" />
<use xlink:href="#f0_1g" transform="matrix(14.9,0,0,14.9,274.9,373.8)" />
<use xlink:href="#f0_1e" transform="matrix(14.9,0,0,14.9,287.6,373.8)" />
<use xlink:href="#f0_1a" transform="matrix(14.9,0,0,14.9,299.7,373.8)" />
<use xlink:href="#f0_1n" transform="matrix(14.9,0,0,14.9,311.7,373.8)" />
<use xlink:href="#f0_1t" transform="matrix(14.9,0,0,14.9,324.5,373.8)" />
<use xlink:href="#f0_s" transform="matrix(14.9,0,0,14.9,339.3,373.8)" />
<use xlink:href="#f0_1i" transform="matrix(14.9,0,0,14.9,351.2,373.8)" />
<use xlink:href="#f0_1r" transform="matrix(14.9,0,0,14.9,356.5,373.8)" />
<use xlink:href="#f0_1s" transform="matrix(14.9,0,0,14.9,364.7,373.8)" />
<use xlink:href="#f0_1t" transform="matrix(14.9,0,0,14.9,375,373.8)" />
<use xlink:href="#f0_p" transform="matrix(14.9,0,0,14.9,389.8,373.8)" />
<use xlink:href="#f0_1l" transform="matrix(14.9,0,0,14.9,403.6,373.8)" />
<use xlink:href="#f0_1a" transform="matrix(14.9,0,0,14.9,408.8,373.8)" />
<use xlink:href="#f0_1s" transform="matrix(14.9,0,0,14.9,420.8,373.8)" />
<use xlink:href="#f0_1s" transform="matrix(14.9,0,0,14.9,431,373.8)" />
</g>
</g>
<text 
x="241" 
y="373" 
dx="0,0.1,0.1,0.1,0.1,0.1,0.1,0.1,0.1,0,0.1,0,0.1,0.1,0.1,0,0.1,0,0.1,0.1,0.1" 
class="s1_5"
>Sergeant First Class </text>

<g clip-path="url(#c11_5)">
<g fill="#000000" >
<use xlink:href="#f0_h" transform="matrix(14.9,0,0,14.9,682.8,373.8)" />
<use xlink:href="#f0_b" transform="matrix(14.9,0,0,14.9,695.3,373.8)" />
</g>
</g>
<text 
x="682" 
y="373" 
dx="0,0.1,0.1" 
class="s1_5"
>60 </text>

<path d="M193.4,338.6l0.8,0l0,-0.7l-0.8,0l0,0.7Z" class="g1_5" />
<path d="M194.2,338.6l294.8,0l0,-0.7l-294.8,0l0,0.7Z" class="g1_5" />
<path d="M489,338.6l0.7,0l0,-0.7l-0.7,0l0,0.7Z" class="g1_5" />
<path d="M489.7,338.6l159.5,0l0,-0.7l-159.5,0l0,0.7Z" class="g1_5" />
<path d="M649.2,338.6l0.7,0l0,-0.7l-0.7,0l0,0.7Z" class="g1_5" />
<path d="M649.9,338.6l90.6,0l0,-0.7l-90.6,0l0,0.7Z" class="g1_5" />
<path d="M740.5,338.6l0.7,0l0,-0.7l-0.7,0l0,0.7Z" class="g1_5" />
<path d="M193.4,391.4l0.8,0l0,-52.8l-0.8,0l0,52.8Z" class="g1_5" />
<path d="M489,391.4l0.7,0l0,-52.8l-0.7,0l0,52.8Z" class="g1_5" />
<path d="M649.2,391.4l0.7,0l0,-52.8l-0.7,0l0,52.8Z" class="g1_5" />
<path d="M740.5,391.4l0.7,0l0,-52.8l-0.7,0l0,52.8Z" class="g1_5" />
<g clip-path="url(#c12_5)">
<g fill="#000000" >
<use xlink:href="#f0_z" transform="matrix(14.9,0,0,14.9,258.9,427.3)" />
<use xlink:href="#f0_1a" transform="matrix(14.9,0,0,14.9,276.5,427.3)" />
<use xlink:href="#f0_1s" transform="matrix(14.9,0,0,14.9,288.6,427.3)" />
<use xlink:href="#f0_1t" transform="matrix(14.9,0,0,14.9,298.8,427.3)" />
<use xlink:href="#f0_1e" transform="matrix(14.9,0,0,14.9,306.4,427.3)" />
<use xlink:href="#f0_1r" transform="matrix(14.9,0,0,14.9,318.5,427.3)" />
<use xlink:href="#f0_14" transform="matrix(14.9,0,0,14.9,333.9,427.3)" />
<use xlink:href="#f0_1e" transform="matrix(14.9,0,0,14.9,346.7,427.3)" />
<use xlink:href="#f0_1r" transform="matrix(14.9,0,0,14.9,358.8,427.3)" />
<use xlink:href="#f0_1g" transform="matrix(14.9,0,0,14.9,367,427.3)" />
<use xlink:href="#f0_1e" transform="matrix(14.9,0,0,14.9,379.7,427.3)" />
<use xlink:href="#f0_1a" transform="matrix(14.9,0,0,14.9,391.7,427.3)" />
<use xlink:href="#f0_1n" transform="matrix(14.9,0,0,14.9,403.8,427.3)" />
<use xlink:href="#f0_1t" transform="matrix(14.9,0,0,14.9,416.5,427.3)" />
</g>
</g>
<text 
x="258" 
y="427" 
dx="0,0.1,0.1,0.1,0.1,0.1,0.1,0,0.1,0.1,0.1,0.1,0.1,0.1,0.1,0.1" 
class="s1_5"
>Master Sergeant </text>

<g clip-path="url(#c13_5)">
<g fill="#000000" >
<use xlink:href="#f0_i" transform="matrix(14.9,0,0,14.9,682.8,427.3)" />
<use xlink:href="#f0_b" transform="matrix(14.9,0,0,14.9,695.3,427.3)" />
</g>
</g>
<text 
x="682" 
y="427" 
dx="0,0.1,0.1" 
class="s1_5"
>70 </text>

<path d="M193.4,392.1l0.8,0l0,-0.7l-0.8,0l0,0.7Z" class="g1_5" />
<path d="M194.2,392.1l294.8,0l0,-0.7l-294.8,0l0,0.7Z" class="g1_5" />
<path d="M489,392.1l0.7,0l0,-0.7l-0.7,0l0,0.7Z" class="g1_5" />
<path d="M489.7,392.1l159.5,0l0,-0.7l-159.5,0l0,0.7Z" class="g1_5" />
<path d="M649.2,392.1l0.7,0l0,-0.7l-0.7,0l0,0.7Z" class="g1_5" />
<path d="M649.9,392.1l90.6,0l0,-0.7l-90.6,0l0,0.7Z" class="g1_5" />
<path d="M740.5,392.1l0.7,0l0,-0.7l-0.7,0l0,0.7Z" class="g1_5" />
<path d="M193.4,444.9l0.8,0l0,-52.8l-0.8,0l0,52.8Z" class="g1_5" />
<path d="M489,444.9l0.7,0l0,-52.8l-0.7,0l0,52.8Z" class="g1_5" />
<path d="M649.2,444.9l0.7,0l0,-52.8l-0.7,0l0,52.8Z" class="g1_5" />
<path d="M740.5,444.9l0.7,0l0,-52.8l-0.7,0l0,52.8Z" class="g1_5" />
<g clip-path="url(#c14_5)">
<g fill="#000000" >
<use xlink:href="#f0_14" transform="matrix(14.9,0,0,14.9,264.4,480.9)" />
<use xlink:href="#f0_1e" transform="matrix(14.9,0,0,14.9,277.2,480.9)" />
<use xlink:href="#f0_1r" transform="matrix(14.9,0,0,14.9,289.2,480.9)" />
<use xlink:href="#f0_1g" transform="matrix(14.9,0,0,14.9,297.5,480.9)" />
<use xlink:href="#f0_1e" transform="matrix(14.9,0,0,14.9,310.2,480.9)" />
<use xlink:href="#f0_1a" transform="matrix(14.9,0,0,14.9,322.2,480.9)" />
<use xlink:href="#f0_1n" transform="matrix(14.9,0,0,14.9,334.3,480.9)" />
<use xlink:href="#f0_1t" transform="matrix(14.9,0,0,14.9,347,480.9)" />
<use xlink:href="#f0_z" transform="matrix(14.9,0,0,14.9,361.9,480.9)" />
<use xlink:href="#f0_1a" transform="matrix(14.9,0,0,14.9,379.5,480.9)" />
<use xlink:href="#f0_1j" transform="matrix(14.9,0,0,14.9,391.5,480.9)" />
<use xlink:href="#f0_1o" transform="matrix(14.9,0,0,14.9,398,480.9)" />
<use xlink:href="#f0_1r" transform="matrix(14.9,0,0,14.9,410.4,480.9)" />
</g>
</g>
<text 
x="264" 
y="480" 
dx="0,0.1,0.1,0.1,0.1,0.1,0.1,0.1,0.1,0,0.1,0.1,0,0.1,0.1" 
class="s1_5"
>Sergeant Major </text>

<g clip-path="url(#c15_5)">
<g fill="#000000" >
<use xlink:href="#f0_j" transform="matrix(14.9,0,0,14.9,682.8,480.9)" />
<use xlink:href="#f0_b" transform="matrix(14.9,0,0,14.9,695.3,480.9)" />
</g>
</g>
<text 
x="682" 
y="480" 
dx="0,0.1,0.1" 
class="s1_5"
>80 </text>

<path d="M193.4,445.7l0.8,0l0,-0.8l-0.8,0l0,0.8Z" class="g1_5" />
<path d="M194.2,445.7l294.8,0l0,-0.8l-294.8,0l0,0.8Z" class="g1_5" />
<path d="M489,445.7l0.7,0l0,-0.8l-0.7,0l0,0.8Z" class="g1_5" />
<path d="M489.7,445.7l159.5,0l0,-0.8l-159.5,0l0,0.8Z" class="g1_5" />
<path d="M649.2,445.7l0.7,0l0,-0.8l-0.7,0l0,0.8Z" class="g1_5" />
<path d="M649.9,445.7l90.6,0l0,-0.8l-90.6,0l0,0.8Z" class="g1_5" />
<path d="M740.5,445.7l0.7,0l0,-0.8l-0.7,0l0,0.8Z" class="g1_5" />
<path d="M193.4,498.5l0.8,0l0,-52.8l-0.8,0l0,52.8Z" class="g1_5" />
<path d="M489,498.5l0.7,0l0,-52.8l-0.7,0l0,52.8Z" class="g1_5" />
<path d="M649.2,498.5l0.7,0l0,-52.8l-0.7,0l0,52.8Z" class="g1_5" />
<path d="M740.5,498.5l0.7,0l0,-52.8l-0.7,0l0,52.8Z" class="g1_5" />
<g clip-path="url(#c16_5)">
<g fill="#000000" >
<use xlink:href="#f0_p" transform="matrix(14.9,0,0,14.9,209.7,534.4)" />
<use xlink:href="#f0_1o" transform="matrix(14.9,0,0,14.9,223.5,534.4)" />
<use xlink:href="#f0_1m" transform="matrix(14.9,0,0,14.9,235.9,534.4)" />
<use xlink:href="#f0_1m" transform="matrix(14.9,0,0,14.9,255.2,534.4)" />
<use xlink:href="#f0_1a" transform="matrix(14.9,0,0,14.9,274.4,534.4)" />
<use xlink:href="#f0_1n" transform="matrix(14.9,0,0,14.9,286.5,534.4)" />
<use xlink:href="#f0_1d" transform="matrix(14.9,0,0,14.9,299.3,534.4)" />
<use xlink:href="#f0_14" transform="matrix(14.9,0,0,14.9,319.1,534.4)" />
<use xlink:href="#f0_1e" transform="matrix(14.9,0,0,14.9,331.9,534.4)" />
<use xlink:href="#f0_1r" transform="matrix(14.9,0,0,14.9,343.9,534.4)" />
<use xlink:href="#f0_1g" transform="matrix(14.9,0,0,14.9,352.2,534.4)" />
<use xlink:href="#f0_1e" transform="matrix(14.9,0,0,14.9,364.8,534.4)" />
<use xlink:href="#f0_1a" transform="matrix(14.9,0,0,14.9,376.9,534.4)" />
<use xlink:href="#f0_1n" transform="matrix(14.9,0,0,14.9,388.9,534.4)" />
<use xlink:href="#f0_1t" transform="matrix(14.9,0,0,14.9,401.7,534.4)" />
<use xlink:href="#f0_z" transform="matrix(14.9,0,0,14.9,416.6,534.4)" />
<use xlink:href="#f0_1a" transform="matrix(14.9,0,0,14.9,434.2,534.4)" />
<use xlink:href="#f0_1j" transform="matrix(14.9,0,0,14.9,446.2,534.4)" />
<use xlink:href="#f0_1o" transform="matrix(14.9,0,0,14.9,452.7,534.4)" />
<use xlink:href="#f0_1r" transform="matrix(14.9,0,0,14.9,465.2,534.4)" />
</g>
</g>
<text 
x="209" 
y="534" 
dx="0,0.1,0.1,0.1,0.1,0.1,0.1,0.1,0.1,0.1,0.1,0.1,0.1,0.1,0.1,0.1,0.1,0.1,0.1,0.1,0.1,0.1,0" 
class="s1_5"
>Command Sergeant Major </text>

<g clip-path="url(#c17_5)">
<g fill="#000000" >
<use xlink:href="#f0_k" transform="matrix(14.9,0,0,14.9,682.8,534.4)" />
<use xlink:href="#f0_b" transform="matrix(14.9,0,0,14.9,695.3,534.4)" />
</g>
</g>
<text 
x="682" 
y="534" 
dx="0,0.1,0.1" 
class="s1_5"
>90 </text>

<path d="M193.4,499.2l0.8,0l0,-0.7l-0.8,0l0,0.7Z" class="g1_5" />
<path d="M194.2,499.2l294.8,0l0,-0.7l-294.8,0l0,0.7Z" class="g1_5" />
<path d="M489,499.2l0.7,0l0,-0.7l-0.7,0l0,0.7Z" class="g1_5" />
<path d="M489.7,499.2l159.5,0l0,-0.7l-159.5,0l0,0.7Z" class="g1_5" />
<path d="M649.2,499.2l0.7,0l0,-0.7l-0.7,0l0,0.7Z" class="g1_5" />
<path d="M649.9,499.2l90.6,0l0,-0.7l-90.6,0l0,0.7Z" class="g1_5" />
<path d="M740.5,499.2l0.7,0l0,-0.7l-0.7,0l0,0.7Z" class="g1_5" />
<path d="M193.4,552l0.8,0l0,-52.8l-0.8,0l0,52.8Z" class="g1_5" />
<path d="M489,552l0.7,0l0,-52.8l-0.7,0l0,52.8Z" class="g1_5" />
<path d="M649.2,552l0.7,0l0,-52.8l-0.7,0l0,52.8Z" class="g1_5" />
<path d="M740.5,552l0.7,0l0,-52.8l-0.7,0l0,52.8Z" class="g1_5" />
<g clip-path="url(#c18_5)">
<g fill="#000000" >
<use xlink:href="#f0_14" transform="matrix(14.9,0,0,14.9,248.1,587.9)" />
<use xlink:href="#f0_1e" transform="matrix(14.9,0,0,14.9,260.9,587.9)" />
<use xlink:href="#f0_1c" transform="matrix(14.9,0,0,14.9,272.9,587.9)" />
<use xlink:href="#f0_1o" transform="matrix(14.9,0,0,14.9,283.5,587.9)" />
<use xlink:href="#f0_1n" transform="matrix(14.9,0,0,14.9,295.9,587.9)" />
<use xlink:href="#f0_1d" transform="matrix(14.9,0,0,14.9,308.7,587.9)" />
<use xlink:href="#f0_y" transform="matrix(14.9,0,0,14.9,328.5,587.9)" />
<use xlink:href="#f0_1i" transform="matrix(14.9,0,0,14.9,339.9,587.9)" />
<use xlink:href="#f0_1e" transform="matrix(14.9,0,0,14.9,345.2,587.9)" />
<use xlink:href="#f0_1u" transform="matrix(14.9,0,0,14.9,357.2,587.9)" />
<use xlink:href="#f0_1t" transform="matrix(14.9,0,0,14.9,370,587.9)" />
<use xlink:href="#f0_1e" transform="matrix(14.9,0,0,14.9,377.7,587.9)" />
<use xlink:href="#f0_1n" transform="matrix(14.9,0,0,14.9,389.7,587.9)" />
<use xlink:href="#f0_1a" transform="matrix(14.9,0,0,14.9,402.5,587.9)" />
<use xlink:href="#f0_1n" transform="matrix(14.9,0,0,14.9,414.5,587.9)" />
<use xlink:href="#f0_1t" transform="matrix(14.9,0,0,14.9,427.3,587.9)" />
</g>
</g>
<text 
x="248" 
y="587" 
dx="0,0.1,0.1,0.1,0.1,0.1,0.1,0,0.1,0,0.1,0.1,0.1,0.1,0.1,0.1,0.1,0.1" 
class="s1_5"
>Second Lieutenant </text>

<g clip-path="url(#c19_5)">
<g fill="#000000" >
<use xlink:href="#f0_c" transform="matrix(14.9,0,0,14.9,676.5,587.9)" />
<use xlink:href="#f0_b" transform="matrix(14.9,0,0,14.9,689.1,587.9)" />
<use xlink:href="#f0_b" transform="matrix(14.9,0,0,14.9,701.6,587.9)" />
</g>
</g>
<text 
x="676" 
y="587" 
dx="0,0.1,0.1,0.1" 
class="s1_5"
>100 </text>

<path d="M193.4,552.7l0.8,0l0,-0.7l-0.8,0l0,0.7Z" class="g1_5" />
<path d="M194.2,552.7l294.8,0l0,-0.7l-294.8,0l0,0.7Z" class="g1_5" />
<path d="M489,552.7l0.7,0l0,-0.7l-0.7,0l0,0.7Z" class="g1_5" />
<path d="M489.7,552.7l159.5,0l0,-0.7l-159.5,0l0,0.7Z" class="g1_5" />
<path d="M649.2,552.7l0.7,0l0,-0.7l-0.7,0l0,0.7Z" class="g1_5" />
<path d="M649.9,552.7l90.6,0l0,-0.7l-90.6,0l0,0.7Z" class="g1_5" />
<path d="M740.5,552.7l0.7,0l0,-0.7l-0.7,0l0,0.7Z" class="g1_5" />
<path d="M193.4,605.5l0.8,0l0,-52.8l-0.8,0l0,52.8Z" class="g1_5" />
<path d="M489,605.5l0.7,0l0,-52.8l-0.7,0l0,52.8Z" class="g1_5" />
<path d="M649.2,605.5l0.7,0l0,-52.8l-0.7,0l0,52.8Z" class="g1_5" />
<path d="M740.5,605.5l0.7,0l0,-52.8l-0.7,0l0,52.8Z" class="g1_5" />
<g clip-path="url(#c20_5)">
<g fill="#000000" >
<use xlink:href="#f0_s" transform="matrix(14.9,0,0,14.9,263.1,641.5)" />
<use xlink:href="#f0_1i" transform="matrix(14.9,0,0,14.9,275,641.5)" />
<use xlink:href="#f0_1r" transform="matrix(14.9,0,0,14.9,280.3,641.5)" />
<use xlink:href="#f0_1s" transform="matrix(14.9,0,0,14.9,288.5,641.5)" />
<use xlink:href="#f0_1t" transform="matrix(14.9,0,0,14.9,298.8,641.5)" />
<use xlink:href="#f0_y" transform="matrix(14.9,0,0,14.9,313.6,641.5)" />
<use xlink:href="#f0_1i" transform="matrix(14.9,0,0,14.9,325,641.5)" />
<use xlink:href="#f0_1e" transform="matrix(14.9,0,0,14.9,330.2,641.5)" />
<use xlink:href="#f0_1u" transform="matrix(14.9,0,0,14.9,342.3,641.5)" />
<use xlink:href="#f0_1t" transform="matrix(14.9,0,0,14.9,355.1,641.5)" />
<use xlink:href="#f0_1e" transform="matrix(14.9,0,0,14.9,362.7,641.5)" />
<use xlink:href="#f0_1n" transform="matrix(14.9,0,0,14.9,374.8,641.5)" />
<use xlink:href="#f0_1a" transform="matrix(14.9,0,0,14.9,387.5,641.5)" />
<use xlink:href="#f0_1n" transform="matrix(14.9,0,0,14.9,399.6,641.5)" />
<use xlink:href="#f0_1t" transform="matrix(14.9,0,0,14.9,412.3,641.5)" />
</g>
</g>
<text 
x="263" 
y="641" 
dx="0,0.1,0,0.1,0.1,0.1,0,0.1,0,0.1,0.1,0.1,0.1,0.1,0.1,0.1,0.1" 
class="s1_5"
>First Lieutenant </text>

<g clip-path="url(#c21_5)">
<g fill="#000000" >
<use xlink:href="#f0_c" transform="matrix(14.9,0,0,14.9,676.5,641.5)" />
<use xlink:href="#f0_c" transform="matrix(14.9,0,0,14.9,689.1,641.5)" />
<use xlink:href="#f0_b" transform="matrix(14.9,0,0,14.9,701.6,641.5)" />
</g>
</g>
<text 
x="676" 
y="641" 
dx="0,0.1,0.1,0.1" 
class="s1_5"
>110 </text>

<path d="M193.4,606.3l0.8,0l0,-0.8l-0.8,0l0,0.8Z" class="g1_5" />
<path d="M194.2,606.3l294.8,0l0,-0.8l-294.8,0l0,0.8Z" class="g1_5" />
<path d="M489,606.3l0.7,0l0,-0.8l-0.7,0l0,0.8Z" class="g1_5" />
<path d="M489.7,606.3l159.5,0l0,-0.8l-159.5,0l0,0.8Z" class="g1_5" />
<path d="M649.2,606.3l0.7,0l0,-0.8l-0.7,0l0,0.8Z" class="g1_5" />
<path d="M649.9,606.3l90.6,0l0,-0.8l-90.6,0l0,0.8Z" class="g1_5" />
<path d="M740.5,606.3l0.7,0l0,-0.8l-0.7,0l0,0.8Z" class="g1_5" />
<path d="M193.4,659.1l0.8,0l0,-52.8l-0.8,0l0,52.8Z" class="g1_5" />
<path d="M489,659.1l0.7,0l0,-52.8l-0.7,0l0,52.8Z" class="g1_5" />
<path d="M649.2,659.1l0.7,0l0,-52.8l-0.7,0l0,52.8Z" class="g1_5" />
<path d="M740.5,659.1l0.7,0l0,-52.8l-0.7,0l0,52.8Z" class="g1_5" />
<g clip-path="url(#c22_5)">
<g fill="#000000" >
<use xlink:href="#f0_p" transform="matrix(14.9,0,0,14.9,303.5,695)" />
<use xlink:href="#f0_1a" transform="matrix(14.9,0,0,14.9,317.2,695)" />
<use xlink:href="#f0_1p" transform="matrix(14.9,0,0,14.9,329.3,695)" />
<use xlink:href="#f0_1t" transform="matrix(14.9,0,0,14.9,341.9,695)" />
<use xlink:href="#f0_1a" transform="matrix(14.9,0,0,14.9,349.6,695)" />
<use xlink:href="#f0_1i" transform="matrix(14.9,0,0,14.9,361.6,695)" />
<use xlink:href="#f0_1n" transform="matrix(14.9,0,0,14.9,366.9,695)" />
</g>
</g>
<text 
x="303" 
y="694" 
dx="0,0.1,0.1,0.1,0.1,0.1,0,0.1" 
class="s1_5"
>Captain </text>

<g clip-path="url(#c23_5)">
<g fill="#000000" >
<use xlink:href="#f0_c" transform="matrix(14.9,0,0,14.9,676.5,695)" />
<use xlink:href="#f0_d" transform="matrix(14.9,0,0,14.9,689.1,695)" />
<use xlink:href="#f0_b" transform="matrix(14.9,0,0,14.9,701.6,695)" />
</g>
</g>
<text 
x="676" 
y="694" 
dx="0,0.1,0.1,0.1" 
class="s1_5"
>120 </text>

<path d="M193.4,659.8l0.8,0l0,-0.7l-0.8,0l0,0.7Z" class="g1_5" />
<path d="M194.2,659.8l294.8,0l0,-0.7l-294.8,0l0,0.7Z" class="g1_5" />
<path d="M489,659.8l0.7,0l0,-0.7l-0.7,0l0,0.7Z" class="g1_5" />
<path d="M489.7,659.8l159.5,0l0,-0.7l-159.5,0l0,0.7Z" class="g1_5" />
<path d="M649.2,659.8l0.7,0l0,-0.7l-0.7,0l0,0.7Z" class="g1_5" />
<path d="M649.9,659.8l90.6,0l0,-0.7l-90.6,0l0,0.7Z" class="g1_5" />
<path d="M740.5,659.8l0.7,0l0,-0.7l-0.7,0l0,0.7Z" class="g1_5" />
<path d="M193.4,712.6l0.8,0l0,-52.8l-0.8,0l0,52.8Z" class="g1_5" />
<path d="M489,712.6l0.7,0l0,-52.8l-0.7,0l0,52.8Z" class="g1_5" />
<path d="M649.2,712.6l0.7,0l0,-52.8l-0.7,0l0,52.8Z" class="g1_5" />
<path d="M740.5,712.6l0.7,0l0,-52.8l-0.7,0l0,52.8Z" class="g1_5" />
<g clip-path="url(#c24_5)">
<g fill="#000000" >
<use xlink:href="#f0_z" transform="matrix(14.9,0,0,14.9,313.1,748.5)" />
<use xlink:href="#f0_1a" transform="matrix(14.9,0,0,14.9,330.8,748.5)" />
<use xlink:href="#f0_1j" transform="matrix(14.9,0,0,14.9,342.8,748.5)" />
<use xlink:href="#f0_1o" transform="matrix(14.9,0,0,14.9,349.3,748.5)" />
<use xlink:href="#f0_1r" transform="matrix(14.9,0,0,14.9,361.7,748.5)" />
</g>
</g>
<text 
x="313" 
y="748" 
dx="0,0.1,0.1,0,0.1,0.1" 
class="s1_5"
>Major </text>

<g clip-path="url(#c25_5)">
<g fill="#000000" >
<use xlink:href="#f0_c" transform="matrix(14.9,0,0,14.9,676.5,748.5)" />
<use xlink:href="#f0_e" transform="matrix(14.9,0,0,14.9,689.1,748.5)" />
<use xlink:href="#f0_b" transform="matrix(14.9,0,0,14.9,701.6,748.5)" />
</g>
</g>
<text 
x="676" 
y="748" 
dx="0,0.1,0.1,0.1" 
class="s1_5"
>130 </text>

<path d="M193.4,713.3l0.8,0l0,-0.7l-0.8,0l0,0.7Z" class="g1_5" />
<path d="M194.2,713.3l294.8,0l0,-0.7l-294.8,0l0,0.7Z" class="g1_5" />
<path d="M489,713.3l0.7,0l0,-0.7l-0.7,0l0,0.7Z" class="g1_5" />
<path d="M489.7,713.3l159.5,0l0,-0.7l-159.5,0l0,0.7Z" class="g1_5" />
<path d="M649.2,713.3l0.7,0l0,-0.7l-0.7,0l0,0.7Z" class="g1_5" />
<path d="M649.9,713.3l90.6,0l0,-0.7l-90.6,0l0,0.7Z" class="g1_5" />
<path d="M740.5,713.3l0.7,0l0,-0.7l-0.7,0l0,0.7Z" class="g1_5" />
<path d="M193.4,766.1l0.8,0l0,-52.8l-0.8,0l0,52.8Z" class="g1_5" />
<path d="M489,766.1l0.7,0l0,-52.8l-0.7,0l0,52.8Z" class="g1_5" />
<path d="M649.2,766.1l0.7,0l0,-52.8l-0.7,0l0,52.8Z" class="g1_5" />
<path d="M740.5,766.1l0.7,0l0,-52.8l-0.7,0l0,52.8Z" class="g1_5" />
<g clip-path="url(#c26_5)">
<g fill="#000000" >
<use xlink:href="#f0_y" transform="matrix(14.9,0,0,14.9,247.8,802.1)" />
<use xlink:href="#f0_1i" transform="matrix(14.9,0,0,14.9,259.2,802.1)" />
<use xlink:href="#f0_1e" transform="matrix(14.9,0,0,14.9,264.4,802.1)" />
<use xlink:href="#f0_1u" transform="matrix(14.9,0,0,14.9,276.5,802.1)" />
<use xlink:href="#f0_1t" transform="matrix(14.9,0,0,14.9,289.2,802.1)" />
<use xlink:href="#f0_1e" transform="matrix(14.9,0,0,14.9,296.9,802.1)" />
<use xlink:href="#f0_1n" transform="matrix(14.9,0,0,14.9,309,802.1)" />
<use xlink:href="#f0_1a" transform="matrix(14.9,0,0,14.9,321.7,802.1)" />
<use xlink:href="#f0_1n" transform="matrix(14.9,0,0,14.9,333.8,802.1)" />
<use xlink:href="#f0_1t" transform="matrix(14.9,0,0,14.9,346.5,802.1)" />
<use xlink:href="#f0_p" transform="matrix(14.9,0,0,14.9,361.4,802.1)" />
<use xlink:href="#f0_1o" transform="matrix(14.9,0,0,14.9,375.1,802.1)" />
<use xlink:href="#f0_1l" transform="matrix(14.9,0,0,14.9,387.6,802.1)" />
<use xlink:href="#f0_1o" transform="matrix(14.9,0,0,14.9,392.8,802.1)" />
<use xlink:href="#f0_1n" transform="matrix(14.9,0,0,14.9,405.3,802.1)" />
<use xlink:href="#f0_1e" transform="matrix(14.9,0,0,14.9,418,802.1)" />
<use xlink:href="#f0_1l" transform="matrix(14.9,0,0,14.9,430.1,802.1)" />
</g>
</g>
<text 
x="247" 
y="802" 
dx="0,0.1,0,0.1,0.1,0.1,0.1,0.1,0.1,0.1,0.1,0,0.1,0.1,0,0.1,0.1,0.1,0.1" 
class="s1_5"
>Lieutenant Colonel </text>

<g clip-path="url(#c27_5)">
<g fill="#000000" >
<use xlink:href="#f0_c" transform="matrix(14.9,0,0,14.9,676.5,802.1)" />
<use xlink:href="#f0_f" transform="matrix(14.9,0,0,14.9,689.1,802.1)" />
<use xlink:href="#f0_b" transform="matrix(14.9,0,0,14.9,701.6,802.1)" />
</g>
</g>
<text 
x="676" 
y="802" 
dx="0,0.1,0.1,0.1" 
class="s1_5"
>140 </text>

<path d="M193.4,766.9l0.8,0l0,-0.8l-0.8,0l0,0.8Z" class="g1_5" />
<path d="M194.2,766.9l294.8,0l0,-0.8l-294.8,0l0,0.8Z" class="g1_5" />
<path d="M489,766.9l0.7,0l0,-0.8l-0.7,0l0,0.8Z" class="g1_5" />
<path d="M489.7,766.9l159.5,0l0,-0.8l-159.5,0l0,0.8Z" class="g1_5" />
<path d="M649.2,766.9l0.7,0l0,-0.8l-0.7,0l0,0.8Z" class="g1_5" />
<path d="M649.9,766.9l90.6,0l0,-0.8l-90.6,0l0,0.8Z" class="g1_5" />
<path d="M740.5,766.9l0.7,0l0,-0.8l-0.7,0l0,0.8Z" class="g1_5" />
<path d="M193.4,819.7l0.8,0l0,-52.8l-0.8,0l0,52.8Z" class="g1_5" />
<path d="M489,819.7l0.7,0l0,-52.8l-0.7,0l0,52.8Z" class="g1_5" />
<path d="M649.2,819.7l0.7,0l0,-52.8l-0.7,0l0,52.8Z" class="g1_5" />
<path d="M740.5,819.7l0.7,0l0,-52.8l-0.7,0l0,52.8Z" class="g1_5" />
<g clip-path="url(#c28_5)">
<g fill="#000000" >
<use xlink:href="#f0_p" transform="matrix(14.9,0,0,14.9,304.6,855.6)" />
<use xlink:href="#f0_1o" transform="matrix(14.9,0,0,14.9,318.3,855.6)" />
<use xlink:href="#f0_1l" transform="matrix(14.9,0,0,14.9,330.8,855.6)" />
<use xlink:href="#f0_1o" transform="matrix(14.9,0,0,14.9,336,855.6)" />
<use xlink:href="#f0_1n" transform="matrix(14.9,0,0,14.9,348.5,855.6)" />
<use xlink:href="#f0_1e" transform="matrix(14.9,0,0,14.9,361.2,855.6)" />
<use xlink:href="#f0_1l" transform="matrix(14.9,0,0,14.9,373.3,855.6)" />
</g>
</g>
<text 
x="304" 
y="855" 
dx="0,0.1,0.1,0,0.1,0.1,0.1,0" 
class="s1_5"
>Colonel </text>

<g clip-path="url(#c29_5)">
<g fill="#000000" >
<use xlink:href="#f0_c" transform="matrix(14.9,0,0,14.9,676.5,855.6)" />
<use xlink:href="#f0_g" transform="matrix(14.9,0,0,14.9,689.1,855.6)" />
<use xlink:href="#f0_b" transform="matrix(14.9,0,0,14.9,701.6,855.6)" />
</g>
</g>
<text 
x="676" 
y="855" 
dx="0,0.1,0.1,0.1" 
class="s1_5"
>150 </text>

<path d="M193.4,820.4l0.8,0l0,-0.7l-0.8,0l0,0.7Z" class="g1_5" />
<path d="M194.2,820.4l294.8,0l0,-0.7l-294.8,0l0,0.7Z" class="g1_5" />
<path d="M489,820.4l0.7,0l0,-0.7l-0.7,0l0,0.7Z" class="g1_5" />
<path d="M489.7,820.4l159.5,0l0,-0.7l-159.5,0l0,0.7Z" class="g1_5" />
<path d="M649.2,820.4l0.7,0l0,-0.7l-0.7,0l0,0.7Z" class="g1_5" />
<path d="M649.9,820.4l90.6,0l0,-0.7l-90.6,0l0,0.7Z" class="g1_5" />
<path d="M740.5,820.4l0.7,0l0,-0.7l-0.7,0l0,0.7Z" class="g1_5" />
<path d="M193.4,873.2l0.8,0l0,-52.8l-0.8,0l0,52.8Z" class="g1_5" />
<path d="M489,873.2l0.7,0l0,-52.8l-0.7,0l0,52.8Z" class="g1_5" />
<path d="M649.2,873.2l0.7,0l0,-52.8l-0.7,0l0,52.8Z" class="g1_5" />
<path d="M740.5,873.2l0.7,0l0,-52.8l-0.7,0l0,52.8Z" class="g1_5" />
<g clip-path="url(#c30_5)">
<g fill="#000000" >
<use xlink:href="#f0_o" transform="matrix(14.9,0,0,14.9,254.2,909.1)" />
<use xlink:href="#f0_1r" transform="matrix(14.9,0,0,14.9,267.7,909.1)" />
<use xlink:href="#f0_1i" transform="matrix(14.9,0,0,14.9,275.9,909.1)" />
<use xlink:href="#f0_1g" transform="matrix(14.9,0,0,14.9,281.1,909.1)" />
<use xlink:href="#f0_1a" transform="matrix(14.9,0,0,14.9,293.8,909.1)" />
<use xlink:href="#f0_1d" transform="matrix(14.9,0,0,14.9,305.8,909.1)" />
<use xlink:href="#f0_1i" transform="matrix(14.9,0,0,14.9,318.5,909.1)" />
<use xlink:href="#f0_1e" transform="matrix(14.9,0,0,14.9,323.7,909.1)" />
<use xlink:href="#f0_1r" transform="matrix(14.9,0,0,14.9,335.8,909.1)" />
<use xlink:href="#f0_t" transform="matrix(14.9,0,0,14.9,351.2,909.1)" />
<use xlink:href="#f0_1e" transform="matrix(14.9,0,0,14.9,366.5,909.1)" />
<use xlink:href="#f0_1n" transform="matrix(14.9,0,0,14.9,378.6,909.1)" />
<use xlink:href="#f0_1e" transform="matrix(14.9,0,0,14.9,391.3,909.1)" />
<use xlink:href="#f0_1r" transform="matrix(14.9,0,0,14.9,403.4,909.1)" />
<use xlink:href="#f0_1a" transform="matrix(14.9,0,0,14.9,411.6,909.1)" />
<use xlink:href="#f0_1l" transform="matrix(14.9,0,0,14.9,423.7,909.1)" />
</g>
</g>
<text 
x="254" 
y="909" 
dx="0,0.1,0.1,0,0.1,0.1,0.1,0,0.1,0.1,0,0.1,0.1,0.1,0.1,0.1,0.1,0" 
class="s1_5"
>Brigadier General </text>

<g clip-path="url(#c31_5)">
<g fill="#000000" >
<use xlink:href="#f0_c" transform="matrix(14.9,0,0,14.9,676.5,909.1)" />
<use xlink:href="#f0_h" transform="matrix(14.9,0,0,14.9,689.1,909.1)" />
<use xlink:href="#f0_b" transform="matrix(14.9,0,0,14.9,701.6,909.1)" />
</g>
</g>
<text 
x="676" 
y="909" 
dx="0,0.1,0.1,0.1" 
class="s1_5"
>160 </text>

<path d="M193.4,873.9l0.8,0l0,-0.7l-0.8,0l0,0.7Z" class="g1_5" />
<path d="M194.2,873.9l294.8,0l0,-0.7l-294.8,0l0,0.7Z" class="g1_5" />
<path d="M489,873.9l0.7,0l0,-0.7l-0.7,0l0,0.7Z" class="g1_5" />
<path d="M489.7,873.9l159.5,0l0,-0.7l-159.5,0l0,0.7Z" class="g1_5" />
<path d="M649.2,873.9l0.7,0l0,-0.7l-0.7,0l0,0.7Z" class="g1_5" />
<path d="M649.9,873.9l90.6,0l0,-0.7l-90.6,0l0,0.7Z" class="g1_5" />
<path d="M740.5,873.9l0.7,0l0,-0.7l-0.7,0l0,0.7Z" class="g1_5" />
<path d="M193.4,926.7l0.8,0l0,-52.8l-0.8,0l0,52.8Z" class="g1_5" />
<path d="M489,926.7l0.7,0l0,-52.8l-0.7,0l0,52.8Z" class="g1_5" />
<path d="M649.2,926.7l0.7,0l0,-52.8l-0.7,0l0,52.8Z" class="g1_5" />
<path d="M740.5,926.7l0.7,0l0,-52.8l-0.7,0l0,52.8Z" class="g1_5" />
<g clip-path="url(#c32_5)">
<g fill="#000000" >
<use xlink:href="#f0_z" transform="matrix(14.9,0,0,14.9,270.7,962.7)" />
<use xlink:href="#f0_1a" transform="matrix(14.9,0,0,14.9,288.3,962.7)" />
<use xlink:href="#f0_1j" transform="matrix(14.9,0,0,14.9,300.4,962.7)" />
<use xlink:href="#f0_1o" transform="matrix(14.9,0,0,14.9,306.8,962.7)" />
<use xlink:href="#f0_1r" transform="matrix(14.9,0,0,14.9,319.3,962.7)" />
<use xlink:href="#f0_t" transform="matrix(14.9,0,0,14.9,334.7,962.7)" />
<use xlink:href="#f0_1e" transform="matrix(14.9,0,0,14.9,350,962.7)" />
<use xlink:href="#f0_1n" transform="matrix(14.9,0,0,14.9,362,962.7)" />
<use xlink:href="#f0_1e" transform="matrix(14.9,0,0,14.9,374.8,962.7)" />
<use xlink:href="#f0_1r" transform="matrix(14.9,0,0,14.9,386.9,962.7)" />
<use xlink:href="#f0_1a" transform="matrix(14.9,0,0,14.9,395.1,962.7)" />
<use xlink:href="#f0_1l" transform="matrix(14.9,0,0,14.9,407.2,962.7)" />
</g>
</g>
<text 
x="270" 
y="962" 
dx="0,0.1,0.1,0,0.1,0.1,0,0.1,0.1,0.1,0.1,0.1,0.1,0" 
class="s1_5"
>Major General </text>

<g clip-path="url(#c33_5)">
<g fill="#000000" >
<use xlink:href="#f0_c" transform="matrix(14.9,0,0,14.9,676.5,962.7)" />
<use xlink:href="#f0_i" transform="matrix(14.9,0,0,14.9,689.1,962.7)" />
<use xlink:href="#f0_b" transform="matrix(14.9,0,0,14.9,701.6,962.7)" />
</g>
</g>
<text 
x="676" 
y="962" 
dx="0,0.1,0.1,0.1" 
class="s1_5"
>170 </text>

<path d="M193.4,927.5l0.8,0l0,-0.8l-0.8,0l0,0.8Z" class="g1_5" />
<path d="M194.2,927.5l294.8,0l0,-0.8l-294.8,0l0,0.8Z" class="g1_5" />
<path d="M489,927.5l0.7,0l0,-0.8l-0.7,0l0,0.8Z" class="g1_5" />
<path d="M489.7,927.5l159.5,0l0,-0.8l-159.5,0l0,0.8Z" class="g1_5" />
<path d="M649.2,927.5l0.7,0l0,-0.8l-0.7,0l0,0.8Z" class="g1_5" />
<path d="M649.9,927.5l90.6,0l0,-0.8l-90.6,0l0,0.8Z" class="g1_5" />
<path d="M740.5,927.5l0.7,0l0,-0.8l-0.7,0l0,0.8Z" class="g1_5" />
<path d="M193.4,980.3l0.8,0l0,-52.8l-0.8,0l0,52.8Z" class="g1_5" />
<path d="M489,980.3l0.7,0l0,-52.8l-0.7,0l0,52.8Z" class="g1_5" />
<path d="M649.2,980.3l0.7,0l0,-52.8l-0.7,0l0,52.8Z" class="g1_5" />
<path d="M740.5,980.3l0.7,0l0,-52.8l-0.7,0l0,52.8Z" class="g1_5" />
<g clip-path="url(#c34_5)">
<g fill="#000000" >
<use xlink:href="#f0_y" transform="matrix(14.9,0,0,14.9,245.9,1016.2)" />
<use xlink:href="#f0_1i" transform="matrix(14.9,0,0,14.9,257.3,1016.2)" />
<use xlink:href="#f0_1e" transform="matrix(14.9,0,0,14.9,262.5,1016.2)" />
<use xlink:href="#f0_1u" transform="matrix(14.9,0,0,14.9,274.6,1016.2)" />
<use xlink:href="#f0_1t" transform="matrix(14.9,0,0,14.9,287.4,1016.2)" />
<use xlink:href="#f0_1e" transform="matrix(14.9,0,0,14.9,295,1016.2)" />
<use xlink:href="#f0_1n" transform="matrix(14.9,0,0,14.9,307.1,1016.2)" />
<use xlink:href="#f0_1a" transform="matrix(14.9,0,0,14.9,319.9,1016.2)" />
<use xlink:href="#f0_1n" transform="matrix(14.9,0,0,14.9,331.9,1016.2)" />
<use xlink:href="#f0_1t" transform="matrix(14.9,0,0,14.9,344.6,1016.2)" />
<use xlink:href="#f0_t" transform="matrix(14.9,0,0,14.9,359.5,1016.2)" />
<use xlink:href="#f0_1e" transform="matrix(14.9,0,0,14.9,374.8,1016.2)" />
<use xlink:href="#f0_1n" transform="matrix(14.9,0,0,14.9,386.8,1016.2)" />
<use xlink:href="#f0_1e" transform="matrix(14.9,0,0,14.9,399.6,1016.2)" />
<use xlink:href="#f0_1r" transform="matrix(14.9,0,0,14.9,411.7,1016.2)" />
<use xlink:href="#f0_1a" transform="matrix(14.9,0,0,14.9,419.9,1016.2)" />
<use xlink:href="#f0_1l" transform="matrix(14.9,0,0,14.9,431.9,1016.2)" />
</g>
</g>
<text 
x="245" 
y="1016" 
dx="0,0.1,0,0.1,0.1,0.1,0.1,0.1,0.1,0.1,0.1,0,0.1,0.1,0.1,0.1,0.1,0.1,0" 
class="s1_5"
>Lieutenant General </text>

<g clip-path="url(#c35_5)">
<g fill="#000000" >
<use xlink:href="#f0_c" transform="matrix(14.9,0,0,14.9,676.5,1016.2)" />
<use xlink:href="#f0_j" transform="matrix(14.9,0,0,14.9,689.1,1016.2)" />
<use xlink:href="#f0_b" transform="matrix(14.9,0,0,14.9,701.6,1016.2)" />
</g>
</g>
<text 
x="676" 
y="1016" 
dx="0,0.1,0.1,0.1" 
class="s1_5"
>180 </text>

<path d="M193.4,981l0.8,0l0,-0.7l-0.8,0l0,0.7Z" class="g1_5" />
<path d="M194.2,981L489,981l0,-0.7l-294.8,0l0,0.7Z" class="g1_5" />
<path d="M489,981l0.7,0l0,-0.7l-0.7,0l0,0.7Z" class="g1_5" />
<path d="M489.7,981l159.5,0l0,-0.7l-159.5,0l0,0.7Z" class="g1_5" />
<path d="M649.2,981l0.7,0l0,-0.7l-0.7,0l0,0.7Z" class="g1_5" />
<path d="M649.9,981l90.6,0l0,-0.7l-90.6,0l0,0.7Z" class="g1_5" />
<path d="M740.5,981l0.7,0l0,-0.7l-0.7,0l0,0.7Z" class="g1_5" />
<path d="M193.4,1033.8l0.8,0l0,-52.8l-0.8,0l0,52.8Z" class="g1_5" />
<path d="M489,1033.8l0.7,0l0,-52.8l-0.7,0l0,52.8Z" class="g1_5" />
<path d="M649.2,1033.8l0.7,0l0,-52.8l-0.7,0l0,52.8Z" class="g1_5" />
<path d="M740.5,1033.8l0.7,0l0,-52.8l-0.7,0l0,52.8Z" class="g1_5" />
<g clip-path="url(#c36_5)">
<g fill="#000000" >
<use xlink:href="#f0_t" transform="matrix(14.9,0,0,14.9,302.7,1069.7)" />
<use xlink:href="#f0_1e" transform="matrix(14.9,0,0,14.9,318,1069.7)" />
<use xlink:href="#f0_1n" transform="matrix(14.9,0,0,14.9,330.1,1069.7)" />
<use xlink:href="#f0_1e" transform="matrix(14.9,0,0,14.9,342.8,1069.7)" />
<use xlink:href="#f0_1r" transform="matrix(14.9,0,0,14.9,354.9,1069.7)" />
<use xlink:href="#f0_1a" transform="matrix(14.9,0,0,14.9,363.2,1069.7)" />
<use xlink:href="#f0_1l" transform="matrix(14.9,0,0,14.9,375.2,1069.7)" />
</g>
</g>
<text 
x="302" 
y="1069" 
dx="0,0.1,0.1,0.1,0.1,0.1,0.1,0" 
class="s1_5"
>General </text>

<g clip-path="url(#c37_5)">
<g fill="#000000" >
<use xlink:href="#f0_c" transform="matrix(14.9,0,0,14.9,676.5,1069.7)" />
<use xlink:href="#f0_k" transform="matrix(14.9,0,0,14.9,689.1,1069.7)" />
<use xlink:href="#f0_b" transform="matrix(14.9,0,0,14.9,701.6,1069.7)" />
</g>
</g>
<text 
x="676" 
y="1069" 
dx="0,0.1,0.1,0.1" 
class="s1_5"
>190 </text>

<path d="M193.4,1034.5l0.8,0l0,-0.7l-0.8,0l0,0.7Z" class="g1_5" />
<path d="M194.2,1034.5l294.8,0l0,-0.7l-294.8,0l0,0.7Z" class="g1_5" />
<path d="M489,1034.5l0.7,0l0,-0.7l-0.7,0l0,0.7Z" class="g1_5" />
<path d="M489.7,1034.5l159.5,0l0,-0.7l-159.5,0l0,0.7Z" class="g1_5" />
<path d="M649.2,1034.5l0.7,0l0,-0.7l-0.7,0l0,0.7Z" class="g1_5" />
<path d="M649.9,1034.5l90.6,0l0,-0.7l-90.6,0l0,0.7Z" class="g1_5" />
<path d="M740.5,1034.5l0.7,0l0,-0.7l-0.7,0l0,0.7Z" class="g1_5" />
<path d="M193.4,1087.3l0.8,0l0,-52.8l-0.8,0l0,52.8Z" class="g1_5" />
<path d="M489,1087.3l0.7,0l0,-52.8l-0.7,0l0,52.8Z" class="g1_5" />
<path d="M649.2,1087.3l0.7,0l0,-52.8l-0.7,0l0,52.8Z" class="g1_5" />
<path d="M740.5,1087.3l0.7,0l0,-52.8l-0.7,0l0,52.8Z" class="g1_5" />
<g clip-path="url(#c38_5)">
<g fill="#000000" >
<use xlink:href="#f0_t" transform="matrix(14.9,0,0,14.9,239.5,1123.3)" />
<use xlink:href="#f0_1e" transform="matrix(14.9,0,0,14.9,254.8,1123.3)" />
<use xlink:href="#f0_1n" transform="matrix(14.9,0,0,14.9,266.9,1123.3)" />
<use xlink:href="#f0_1e" transform="matrix(14.9,0,0,14.9,279.6,1123.3)" />
<use xlink:href="#f0_1r" transform="matrix(14.9,0,0,14.9,291.7,1123.3)" />
<use xlink:href="#f0_1a" transform="matrix(14.9,0,0,14.9,300,1123.3)" />
<use xlink:href="#f0_1l" transform="matrix(14.9,0,0,14.9,312,1123.3)" />
<use xlink:href="#f0_1o" transform="matrix(14.9,0,0,14.9,324.4,1123.3)" />
<use xlink:href="#f0_1f" transform="matrix(14.9,0,0,14.9,336.8,1123.3)" />
<use xlink:href="#f0_1t" transform="matrix(14.9,0,0,14.9,351.3,1123.3)" />
<use xlink:href="#f0_1h" transform="matrix(14.9,0,0,14.9,358.9,1123.3)" />
<use xlink:href="#f0_1e" transform="matrix(14.9,0,0,14.9,371.7,1123.3)" />
<use xlink:href="#f0_n" transform="matrix(14.9,0,0,14.9,390.9,1123.3)" />
<use xlink:href="#f0_1r" transform="matrix(14.9,0,0,14.9,404.6,1123.3)" />
<use xlink:href="#f0_1m" transform="matrix(14.9,0,0,14.9,412.9,1123.3)" />
<use xlink:href="#f0_1y" transform="matrix(14.9,0,0,14.9,432.1,1123.3)" />
</g>
</g>
<text 
x="239" 
y="1123" 
dx="0,0.1,0.1,0.1,0.1,0.1,0.1,0,0,0.1,0.1,0,0.1,0.1,0.1,0,0.1,0.1,0.2,0.1" 
class="s1_5"
>General of the Army </text>

<g clip-path="url(#c39_5)">
<g fill="#000000" >
<use xlink:href="#f0_d" transform="matrix(14.9,0,0,14.9,676.5,1123.3)" />
<use xlink:href="#f0_b" transform="matrix(14.9,0,0,14.9,689.1,1123.3)" />
<use xlink:href="#f0_b" transform="matrix(14.9,0,0,14.9,701.6,1123.3)" />
</g>
</g>
<text 
x="676" 
y="1123" 
dx="0,0.1,0.1,0.1" 
class="s1_5"
>200 </text>

<path d="M193.4,1088.1l0.8,0l0,-0.8l-0.8,0l0,0.8Z" class="g1_5" />
<path d="M194.2,1088.1l294.8,0l0,-0.8l-294.8,0l0,0.8Z" class="g1_5" />
<path d="M489,1088.1l0.7,0l0,-0.8l-0.7,0l0,0.8Z" class="g1_5" />
<path d="M489.7,1088.1l159.5,0l0,-0.8l-159.5,0l0,0.8Z" class="g1_5" />
<path d="M649.2,1088.1l0.7,0l0,-0.8l-0.7,0l0,0.8Z" class="g1_5" />
<path d="M649.9,1088.1l90.6,0l0,-0.8l-90.6,0l0,0.8Z" class="g1_5" />
<path d="M740.5,1088.1l0.7,0l0,-0.8l-0.7,0l0,0.8Z" class="g1_5" />
<path d="M193.4,1140.9l0.8,0l0,-52.8l-0.8,0l0,52.8Z" class="g1_5" />
<path d="M193.4,1141.6l0.8,0l0,-0.7l-0.8,0l0,0.7Z" class="g1_5" />
<path d="M193.4,1141.6l0.8,0l0,-0.7l-0.8,0l0,0.7Z" class="g1_5" />
<path d="M194.2,1141.6l294.8,0l0,-0.7l-294.8,0l0,0.7Z" class="g1_5" />
<path d="M489,1140.9l0.7,0l0,-52.8l-0.7,0l0,52.8Z" class="g1_5" />
<path d="M489,1141.6l0.7,0l0,-0.7l-0.7,0l0,0.7Z" class="g1_5" />
<path d="M489.7,1141.6l159.5,0l0,-0.7l-159.5,0l0,0.7Z" class="g1_5" />
<path d="M649.2,1140.9l0.7,0l0,-52.8l-0.7,0l0,52.8Z" class="g1_5" />
<path d="M649.2,1141.6l0.7,0l0,-0.7l-0.7,0l0,0.7Z" class="g1_5" />
<path d="M649.9,1141.6l90.6,0l0,-0.7l-90.6,0l0,0.7Z" class="g1_5" />
<path d="M740.5,1140.9l0.7,0l0,-52.8l-0.7,0l0,52.8Z" class="g1_5" />
<path d="M740.5,1141.6l0.7,0l0,-0.7l-0.7,0l0,0.7Z" class="g1_5" />
<path d="M740.5,1141.6l0.7,0l0,-0.7l-0.7,0l0,0.7Z" class="g1_5" />
<image preserveAspectRatio="none" x="543" y="71" width="53" height="52" xlink:href="5/img/1.png" />
<image preserveAspectRatio="none" x="547" y="124" width="44" height="53" xlink:href="5/img/2.png" />
<image preserveAspectRatio="none" x="545" y="178" width="48" height="52" xlink:href="5/img/3.png" />
<image preserveAspectRatio="none" x="548" y="232" width="42" height="52" xlink:href="5/img/4.png" />
<image preserveAspectRatio="none" x="551" y="285" width="35" height="52" xlink:href="5/img/5.png" />
<image preserveAspectRatio="none" x="554" y="339" width="31" height="52" xlink:href="5/img/6.png" />
<image preserveAspectRatio="none" x="554" y="392" width="30" height="53" xlink:href="5/img/7.png" />
<image preserveAspectRatio="none" x="554" y="446" width="30" height="52" xlink:href="5/img/8.png" />
<image preserveAspectRatio="none" x="554" y="499" width="30" height="53" xlink:href="5/img/9.png" />
<image preserveAspectRatio="none" x="559" y="554" width="20" height="50" xlink:href="5/img/10.png" />
<image preserveAspectRatio="none" x="559" y="608" width="20" height="49" xlink:href="5/img/11.png" />
<image preserveAspectRatio="none" x="543" y="661" width="53" height="50" xlink:href="5/img/12.png" />
<image preserveAspectRatio="none" x="546" y="715" width="47" height="49" xlink:href="5/img/13.png" />
<image preserveAspectRatio="none" x="546" y="768" width="47" height="50" xlink:href="5/img/14.png" />
<image preserveAspectRatio="none" x="522" y="822" width="95" height="49" xlink:href="5/img/15.png" />
<image preserveAspectRatio="none" x="551" y="883" width="35" height="33" xlink:href="5/img/16.png" />
<image preserveAspectRatio="none" x="534" y="937" width="71" height="33" xlink:href="5/img/17.png" />
<image preserveAspectRatio="none" x="516" y="991" width="106" height="33" xlink:href="5/img/18.png" />
<image preserveAspectRatio="none" x="498" y="1044" width="142" height="33" xlink:href="5/img/19.png" />
<image preserveAspectRatio="none" x="540" y="1088" width="58" height="53" xlink:href="5/img/20.png" />

<defs>
	<path d="M361.1,540.1c0,0,89.5,0,144.7,14.5c0,0,55.2,14.6,91.7,51.9c0,0,32.9,33.6,47.8,73.1c0,0,14.9,39.5,14.9,92.5c0,0,0,57.4,-19.8,100c0,0,-19.7,42.5,-60,69.3c0,0,-35.1,23.2,-81.7,32.8c0,0,-46.6,9.8,-116,9.8l-122.4,0l0,-443.9ZM112.6,0l0,1110.8l279,0c0,0,98.5,0,167.9,-16.4c0,0,69.4,-16.4,122.3,-53c0,0,62,-42.5,97,-107.8c0,0,35.1,-65.3,35.1,-157.8c0,0,0,-72.3,-25.8,-136.9c0,0,-25.7,-64.5,-71.2,-110c0,0,-57.4,-56.7,-135,-85.8c0,0,-77.6,-29.1,-196.2,-29.1l-125.4,0l0,-414Z" 
	id="f0_12"
	transform="scale(0.001,-0.001)" />

	<path d="M101.5,0l0,833.3l140.2,0l0,-123.9c0,0,76.8,67.9,133.9,95.9c0,0,57.1,28,110.8,28c0,0,21.6,0,32.4,-1.1c0,0,10.9,-1.2,24.3,-3.4l0,-146.2l-7.5,0c0,0,-15.7,4.5,-33.2,5.6c0,0,-17.5,1.1,-42.1,1.1c0,0,-56.7,0,-112.7,-24.6c0,0,-55.9,-24.6,-105.9,-73.1L241.7,0Z" 
	id="f0_1r"
	transform="scale(0.001,-0.001)" />

	<path d="M104.4,0l0,833.3l140.3,0L244.7,0ZM94.7,972.8l0,145.4l159.7,0l0,-145.4Z" 
	id="f0_1i"
	transform="scale(0.001,-0.001)" />

	<path d="M316.3,0L4.5,833.3l151.4,0L384.2,190.2l226,643.1l146.2,0L442.4,0Z" 
	id="f0_1v"
	transform="scale(0.001,-0.001)" />

	<path d="M346.1,105.9c0,0,66.4,0,120.1,28.7c0,0,53.7,28.8,100.7,70.6l0,231.2c0,0,-49.9,-4.5,-126.4,-12.3c0,0,-76.5,-7.8,-123.5,-22c0,0,-55.9,-17.2,-92.4,-52.6c0,0,-36.6,-35.4,-36.6,-98.9c0,0,0,-71.6,40.3,-108.1c0,0,40.3,-36.6,117.8,-36.6ZM296.2,-23c0,0,-51.5,0,-97.8,19.4c0,0,-46.2,19.3,-81.3,54.3c0,0,-33.5,34.3,-53.7,84.7c0,0,-20.1,50.3,-20.1,106.3c0,0,0,86.5,36.5,147.3c0,0,36.6,60.8,115.6,96.6c0,0,70.2,32.1,165.7,44.4c0,0,95.4,12.3,205.8,18.3l0,26.8c0,0,0,49.3,-14.9,79.5c0,0,-14.9,30.2,-41.8,46.6c0,0,-26.8,17.2,-65.6,22.8c0,0,-38.8,5.6,-79.8,5.6c0,0,-48.5,0,-114.2,-14.6c0,0,-65.6,-14.5,-131.2,-42.1l-8.3,0l0,142.5c0,0,38.8,11.2,111.2,24.6c0,0,72.4,13.4,143.2,13.4c0,0,85.8,0,144.7,-13.4c0,0,59,-13.4,106,-48.5c0,0,45.5,-34.3,67.9,-88.8c0,0,22.3,-54.4,22.3,-132.8L706.4,0L566.9,0l0,88.8c0,0,-17.1,-12.7,-45.8,-35.5c0,0,-28.7,-22.7,-55.6,-36.1c0,0,-37.3,-19.3,-72,-29.8c0,0,-34.7,-10.4,-97.3,-10.4Z" 
	id="f0_1a"
	transform="scale(0.001,-0.001)" />

	<path d="M353.6,-16.3c0,0,-114.9,0,-179,65.2c0,0,-64.2,65.2,-64.2,206.2l0,461.8l-94.7,0l0,116.4l94.7,0l0,239.4l140.2,0l0,-239.4l258.2,0l0,-116.4l-258.2,0l0,-396.1c0,0,0,-63.4,2.3,-97.7c0,0,2.2,-34.4,17.2,-64.2c0,0,12.6,-26.1,41,-39.2c0,0,28.3,-13,76.8,-13c0,0,34.3,0,66.4,10c0,0,32.1,10.1,46.3,16.8l8.2,0l0,-126c0,0,-39.6,-11.1,-80.2,-17.5c0,0,-40.7,-6.3,-75,-6.3Z" 
	id="f0_1t"
	transform="scale(0.001,-0.001)" />

	<path d="M627.4,509.5c0,0,-1.5,56.7,-13.4,97.7c0,0,-12,41.1,-34.4,69.4c0,0,-24.6,31.3,-63,47.8c0,0,-38.4,16.4,-95.1,16.4c0,0,-56,0,-95.1,-16.8c0,0,-39.2,-16.8,-71.3,-48.9c0,0,-31.3,-32.8,-47.7,-72.7c0,0,-16.4,-39.9,-20.9,-92.9ZM463.3,-19.3c0,0,-199.2,0,-309.3,112.2c0,0,-110,112.3,-110,318.9c0,0,0,203.6,106.7,324.1c0,0,106.7,120.5,279,120.5c0,0,77.6,0,137.2,-22.4c0,0,59.7,-22.4,104.5,-70.1c0,0,44.7,-47.8,68.6,-116.7c0,0,23.9,-69.1,23.9,-169l0,-76.1l-577.4,0c0,0,0,-145.5,73.1,-222.3c0,0,73.1,-76.9,202.2,-76.9c0,0,46.2,0,90.6,10.5c0,0,44.4,10.4,80.2,26.9c0,0,38,17.1,64.1,33.1c0,0,26.2,16.1,43.3,30.3l8.2,0l0,-153c0,0,-24.6,-9.7,-61.1,-24.2c0,0,-36.6,-14.6,-65.7,-22.8c0,0,-41,-11,-74.2,-17c0,0,-33.2,-6,-83.9,-6Z" 
	id="f0_1e"
	transform="scale(0.001,-0.001)" />

	<path d="M168.6,0l0,113.4l201.4,0l0,744.5l-201.4,0l0,101.4c0,0,114.1,0,168.2,32.5c0,0,54.1,32.4,60.8,122.7l115.6,0l0,-1001.1l197,0L710.2,0Z" 
	id="f0_c"
	transform="scale(0.001,-0.001)" />

	<path d="M417,100c0,0,61.9,0,101.8,29.4c0,0,39.9,29.5,62.3,87.7c0,0,21.7,55.2,30.6,139.5c0,0,9,84.3,9,199.2c0,0,0,114.1,-9,198.4c0,0,-8.9,84.3,-31.3,140.2c0,0,-22.4,56.7,-61.6,86.2c0,0,-39.1,29.5,-101.8,29.5c0,0,-61.9,0,-101.8,-29.5c0,0,-39.9,-29.5,-63.1,-87.7c0,0,-22.3,-56.7,-30.5,-143.2c0,0,-8.2,-86.5,-8.2,-195.4c0,0,0,-116.4,7,-194.7c0,0,7.1,-78.4,31,-140.3c0,0,21.6,-57.4,61.5,-88.4c0,0,40,-30.9,104.1,-30.9Zm0,-123c0,0,-183.5,0,-269.3,142.4c0,0,-85.8,142.4,-85.8,434.9c0,0,0,300.6,86.9,439.7c0,0,86.9,139.2,268.2,139.2c0,0,183.5,0,269.3,-144c0,0,85.8,-144,85.8,-433.4c0,0,0,-299.2,-86.9,-439C685.2,116.8,598.3,-23,417,-23Z" 
	id="f0_b"
	transform="scale(0.001,-0.001)" />

	<path d="M112.6,0l0,1110.8l664.7,0l0,-131.3l-517,0l0,-313.3l495.4,0l0,-131.3l-495.4,0L260.3,0Z" 
	id="f0_s"
	transform="scale(0.001,-0.001)" />

	<path d="M326.7,-20c0,0,-83.5,0,-156.2,22.2C170.5,2.2,97.7,24.6,50,50l0,157.4l7.4,0c0,0,18,-14.2,42.2,-31.4c0,0,24.2,-17.1,64.5,-35.7c0,0,35.8,-16.5,78.7,-29.2c0,0,42.9,-12.6,89.2,-12.6c0,0,33.5,0,71.6,7.8c0,0,38,7.8,56.7,19.8c0,0,26.1,17.1,37.6,36.5c0,0,11.6,19.4,11.6,58.2c0,0,0,50,-27.2,75.4c0,0,-27.3,25.3,-96.6,42.5c0,0,-26.9,6.7,-70.2,15.6c0,0,-43.2,9,-79.8,19.4c0,0,-95.4,27.6,-138.7,85.5C97,459.2,53.7,517,53.7,599c0,0,0,112.7,85.1,183.5c0,0,85,70.9,226,70.9c0,0,69.4,0,139.5,-17.2c0,0,70.1,-17.1,117.9,-43.2l0,-150l-7.5,0c0,0,-53.7,42.6,-119.7,67.2c0,0,-66.1,24.6,-133.2,24.6c0,0,-69.4,0,-117.1,-29.1c0,0,-47.8,-29.1,-47.8,-88c0,0,0,-52.2,28.4,-78c0,0,28.3,-25.7,91,-42.1c0,0,31.3,-8.2,69.7,-16.1c0,0,38.5,-7.8,81,-18.2c0,0,92.5,-23.2,139.1,-76.9c0,0,46.6,-53.7,46.6,-146.2c0,0,0,-53.7,-21.2,-101.8c0,0,-21.3,-48.1,-62.3,-82.5c0,0,-44.8,-37.2,-101.1,-56.5c0,0,-56.3,-19.4,-141.4,-19.4Z" 
	id="f0_1s"
	transform="scale(0.001,-0.001)" />

	<path d="M546.8,-20c0,0,-108.9,0,-200.3,36.4c0,0,-91.4,36.6,-157.8,108.9c0,0,-66.4,72.4,-102.9,180.5c0,0,-36.6,108.2,-36.6,248.5c0,0,0,139.5,35.5,243.2c0,0,35.4,103.6,103.3,180.5c0,0,66.4,74.6,157.4,113.7c0,0,91,39.2,203.7,39.2c0,0,55.9,0,104.8,-8.2c0,0,48.8,-8.2,90.6,-20.9c0,0,35.8,-11.2,73.5,-28c0,0,37.6,-16.7,74.2,-36.9l0,-178.3l-11.9,0c0,0,-19.4,17.9,-50,43.3c0,0,-30.6,25.4,-74.6,50c0,0,-42.5,23.1,-92.5,38c0,0,-50,14.9,-115.6,14.9c0,0,-70.9,0,-134.3,-29.1c0,0,-63.4,-29,-111.2,-85.7c0,0,-47,-56.7,-73.1,-142.5c0,0,-26.1,-85.8,-26.1,-193.2c0,0,0,-114.2,27.6,-196.6c0,0,27.6,-82.4,75.4,-139.1c0,0,46.2,-55.2,108.9,-83.2c0,0,62.6,-28,132.8,-28c0,0,64.1,0,118.6,15.7c0,0,54.4,15.7,96.9,39.5c0,0,41.1,23.1,70.9,47.4c0,0,29.9,24.2,47,41.4l11.2,0l0,-176c0,0,-36.6,-17.2,-69,-32.9c0,0,-32.5,-15.6,-78.7,-30.6c0,0,-48.5,-15.5,-89.9,-23.7c0,0,-41.4,-8.2,-107.8,-8.2Z" 
	id="f0_p"
	transform="scale(0.001,-0.001)" />

	<path d="M104.4,0l0,1160.8l140.3,0L244.7,0Z" 
	id="f0_1l"
	transform="scale(0.001,-0.001)" />

	<path d="M81.3,0l0,155.9c0,0,73.9,70.1,139.5,134.3c0,0,65.7,64.1,128.3,133.5c0,0,126.8,139.5,173.1,223.4c0,0,46.2,84,46.2,173.5c0,0,0,46.2,-14.5,81.3c0,0,-14.5,35.1,-39.9,58.2c0,0,-26.1,22.4,-60.4,33.6c0,0,-34.4,11.1,-75.4,11.1c0,0,-39.5,0,-80.2,-10c0,0,-40.6,-10.1,-77.9,-25c0,0,-31.4,-12.7,-60.4,-30.6c0,0,-29.2,-17.9,-47.1,-30.6l-8.2,0l0,158.2c0,0,46.3,23.1,128.7,45.1c0,0,82.4,22,156.3,22c0,0,155.2,0,243.2,-82.4c0,0,88,-82.5,88,-223.5c0,0,0,-64.9,-15.3,-120.1c0,0,-15.3,-55.2,-42.1,-102.2c0,0,-27.6,-48.4,-66.4,-96.2c0,0,-38.8,-47.7,-82.1,-94c0,0,-70.1,-76.1,-156.3,-158.1c0,0,-86.1,-82.1,-137.6,-129.8l546.1,0L766.9,0Z" 
	id="f0_d"
	transform="scale(0.001,-0.001)" />

	<path d="M415.5,97.7c0,0,108.2,0,167.5,79.5c0,0,59.3,79.4,59.3,239.1c0,0,0,161.8,-58.9,240.5c0,0,-59,78.7,-167.9,78.7c0,0,-109.6,0,-168.9,-78.6c0,0,-59.4,-78.8,-59.4,-240.6c0,0,0,-156.7,59.4,-237.6c0,0,59.3,-81,168.9,-81Zm0,-120.7c0,0,-173.8,0,-273.4,118.1c0,0,-99.6,118.3,-99.6,321.2c0,0,0,208.8,102.6,324.5c0,0,102.6,115.6,270.4,115.6c0,0,168.6,0,270.1,-115.3c0,0,101.4,-115.2,101.4,-324.8c0,0,0,-210.4,-101.4,-324.9C685.6,91.4,584.1,-23,415.5,-23Z" 
	id="f0_1o"
	transform="scale(0.001,-0.001)" />

	<path d="M426,109.7c0,0,108.9,0,169.3,79.8c0,0,60.4,79.8,60.4,233.5c0,0,0,142.5,-45.5,221.2c0,0,-45.5,78.7,-147.7,78.7c0,0,-59.7,0,-115.2,-26.5c0,0,-55.6,-26.5,-105.6,-68.3l0,-472.2c0,0,55.2,-26.8,94.4,-36.5c0,0,39.1,-9.7,89.9,-9.7ZM101.5,-307.2l0,1140.5l140.2,0l0,-87.3c0,0,52.2,47,116,78.7c0,0,63.8,31.7,139.1,31.7c0,0,143.3,0,223.5,-113.4c0,0,80.1,-113.4,80.1,-304.4c0,0,0,-208.1,-99.5,-331.5c0,0,-99.6,-123.4,-251.8,-123.4c0,0,-61.9,0,-109.7,14.2c0,0,-47.7,14,-97.7,43.9l0,-349Z" 
	id="f0_1p"
	transform="scale(0.001,-0.001)" />

	<path d="M376,-23c0,0,-83.6,0,-165.6,20.1c0,0,-82.1,20.1,-138,48.4l0,157.4l10.4,0c0,0,47,-34.3,126.1,-65.6c0,0,79.1,-31.4,158.1,-31.4c0,0,45.5,0,91.4,14.6c0,0,45.9,14.5,76.5,47.3c0,0,29.8,32.9,45.5,72.4c0,0,15.6,39.6,15.6,100c0,0,0,60.4,-17.5,99.2c0,0,-17.5,38.8,-48.8,61.2c0,0,-31.4,22.3,-74.3,30.9c0,0,-42.9,8.6,-92.9,8.6l-63.4,0l0,123.8l49.3,0c0,0,100.7,0,163.7,47.8c0,0,63,47.7,63,138.7c0,0,0,41.8,-16.4,72c0,0,-16.4,30.2,-41.7,48.1c0,0,-28.4,19.4,-62.7,26.9c0,0,-34.3,7.4,-73.1,7.4c0,0,-40.3,0,-80.6,-9.7c0,0,-40.3,-9.7,-79,-25.3c0,0,-35.9,-14.9,-62.3,-31.3c0,0,-26.5,-16.5,-47.4,-30.6l-9,0l0,157.4c0,0,48.5,26.1,131.7,47.3c0,0,83.2,21.3,158.5,21.3c0,0,75.4,0,131.7,-15.3c0,0,56.3,-15.3,101.8,-47.4c0,0,49.3,-35.8,74.3,-86.5c0,0,24.9,-50.7,24.9,-118.6c0,0,0,-91.8,-60.4,-161.1c0,0,-60.4,-69.4,-144.7,-88.1l0,-10.4c0,0,35.1,-6.7,75,-23.1c0,0,39.9,-16.5,74.2,-48.5c0,0,34.3,-32.1,55.9,-82.5c0,0,21.7,-50.3,21.7,-122.7c0,0,0,-75.3,-25.7,-138.4c0,0,-25.8,-63,-72.8,-111.5C649,79.8,600.5,29.1,531.9,3c0,0,-68.6,-26,-155.9,-26Z" 
	id="f0_e"
	transform="scale(0.001,-0.001)" />

	<path d="M422.2,-20c0,0,-120.8,0,-205.5,24.9c0,0,-84.7,24.9,-159.3,61.5l0,185l10.5,0c0,0,73.1,-68.6,165.6,-106.3c0,0,92.5,-37.7,178.3,-37.7c0,0,122.3,0,185,51.1c0,0,62.7,51.1,62.7,134.7c0,0,0,66.4,-32.9,108.1c0,0,-32.8,41.8,-104.4,62c0,0,-51.5,14.9,-94,24.6c0,0,-42.5,9.7,-106.7,26.1c0,0,-57.4,14.9,-102.9,38c0,0,-45.5,23.1,-80.6,60.5c0,0,-34.3,36.5,-53.3,86.1c0,0,-19.1,49.6,-19.1,114.5c0,0,0,135.1,105.2,226.4c0,0,105.2,91.4,268.6,91.4c0,0,93.2,0,176.4,-18.6c0,0,83.2,-18.7,154.1,-53l0,-176.8l-11.2,0c0,0,-53,48.5,-135.8,84.7c0,0,-82.8,36.2,-173.8,36.2c0,0,-103,0,-166.4,-48.2c0,0,-63.4,-48.1,-63.4,-126.4c0,0,0,-70.9,37.3,-112.7c0,0,37.3,-41.7,108.2,-61.1c0,0,47,-12.7,114.9,-28.7c0,0,67.9,-16.1,112.6,-29.5c0,0,114.9,-35.1,167.9,-105.9c0,0,52.9,-70.9,52.9,-174.6c0,0,0,-64.9,-26.4,-128.3c0,0,-26.5,-63.4,-74.3,-107.4c0,0,-53.7,-48.5,-121.2,-74.6c0,0,-67.5,-26,-169,-26Z" 
	id="f0_14"
	transform="scale(0.001,-0.001)" />

	<path d="M386.4,144c0,0,54.5,0,112.3,21.6c0,0,57.8,21.6,104.1,60.4l0,457.3c0,0,-52.3,25.4,-96.6,36.2c0,0,-44.4,10.8,-88.4,10.8c0,0,-106.7,0,-167.9,-78.3c0,0,-61.2,-78.3,-61.2,-224.5c0,0,0,-138.8,46.7,-211.2c0,0,46.6,-72.3,151,-72.3ZM367.8,-315.4c0,0,-61.2,0,-125,9.7c0,0,-63.8,9.7,-119,26.1l0,146.2l7.5,0c0,0,14.2,-6,41.8,-16.1c0,0,27.6,-10,62.6,-19c0,0,38.8,-9.7,71.6,-15.6c0,0,32.9,-6,71.7,-6c0,0,64.9,0,110,17.1c0,0,45.1,17.2,70.5,47.8c0,0,23.9,30.6,33.6,70.8c0,0,9.7,40.3,9.7,91.7l0,73.1c0,0,-56.7,-49.2,-111.2,-72.7c0,0,-54.5,-23.5,-136.5,-23.5c0,0,-142.5,0,-226.8,105.9C128.3,120.1,44,226,44,424.5c0,0,0,103.7,29.1,183.8c0,0,29.1,80.2,78.3,136.2c0,0,47,53.7,111.2,82.8c0,0,64.1,29.1,132.8,29.1c0,0,64.9,0,112.2,-15.3c0,0,47.4,-15.3,95.2,-43.6l8.2,35.8l132,0L743,94.7c0,0,0,-211.7,-92.5,-310.9c0,0,-92.5,-99.2,-282.7,-99.2Z" 
	id="f0_1g"
	transform="scale(0.001,-0.001)" />

	<path d="M101.5,0l0,833.3l140.2,0l0,-92.5c0,0,62.7,55.9,123.8,85.7c0,0,61.2,29.9,129.1,29.9c0,0,123.1,0,192.5,-80.9c0,0,69.3,-81,69.3,-234.7L756.4,0L616.2,0l0,474.5c0,0,0,57.4,-5.6,107c0,0,-5.6,49.6,-21.3,79.4c0,0,-17.1,31.4,-47.7,46.7c0,0,-30.6,15.3,-83.6,15.3c0,0,-52.2,0,-107.8,-28c0,0,-55.5,-28,-108.5,-72.7L241.7,0Z" 
	id="f0_1n"
	transform="scale(0.001,-0.001)" />

	<path d="M520.7,501.3l0,434.2L146.2,501.3ZM520.7,0l0,381.9l-490.9,0l0,156.7l496.9,572.2l137.2,0l0,-609.5l132.1,0l0,-119.4l-132.1,0L663.9,0Z" 
	id="f0_f"
	transform="scale(0.001,-0.001)" />

	<path d="M116.4,0l0,716.9l-94.8,0l0,116.4l94.8,0l0,27.6c0,0,0,150.7,72.3,229c0,0,72.4,78.3,207.4,78.3c0,0,38.8,0,76.1,-4.1c0,0,37.3,-4.1,67.9,-9.3l0,-128.3l-7.5,0c0,0,-18.6,6.7,-53.7,13c0,0,-35,6.4,-62.6,6.4c0,0,-88.8,0,-126.5,-39.9c0,0,-37.7,-40,-37.7,-144.4l0,-28.3l232,0l0,-116.4l-227.5,0L256.6,0Z" 
	id="f0_1f"
	transform="scale(0.001,-0.001)" />

	<path d="M383.4,-23c0,0,-79.8,0,-157,17.5c0,0,-77.2,17.4,-133.9,45.8l0,157.4l10.4,0c0,0,17.2,-12.7,49.3,-28.7c0,0,32.1,-16.1,70.9,-30.2c0,0,44,-15.7,80.5,-24.3c0,0,36.6,-8.6,82.1,-8.6c0,0,44.7,0,87.3,16.1c0,0,42.5,16,73.1,51.8c0,0,27.6,32.8,42.1,76.8c0,0,14.6,44.1,14.6,103.7c0,0,0,59,-16.1,97c0,0,-16,38.1,-46.6,62.7c0,0,-32.1,28.3,-78.7,39.9c0,0,-46.6,11.6,-104.1,11.6c0,0,-60.4,0,-121.6,-9.4c0,0,-61.1,-9.3,-97.7,-17.5l0,572.2l609.5,0l0,-130.6l-465.5,0l0,-295.4c0,0,26.8,3,53,4.5c0,0,26.1,1.5,47.7,1.5c0,0,85,0,144,-14.2c0,0,58.9,-14.2,113.4,-55.2c0,0,55.2,-41.8,84.6,-104.4c0,0,29.5,-62.7,29.5,-163.4c0,0,0,-80.6,-25.7,-149.2c0,0,-25.8,-68.6,-72,-118.6c0,0,-47,-50.7,-116.8,-79.8c0,0,-69.7,-29,-156.3,-29Z" 
	id="f0_g"
	transform="scale(0.001,-0.001)" />

	<path d="M431.9,98.5c0,0,89.5,0,145.1,64.1c0,0,55.6,64.2,55.6,191.7c0,0,0,68.7,-17.9,114.9c0,0,-17.9,46.3,-58.2,79.1c0,0,-29.1,23.9,-66,31.3c0,0,-36.9,7.5,-75.7,7.5c0,0,-52.3,0,-101.5,-15.7c0,0,-49.2,-15.6,-97,-45.5c0,0,-1.4,-16.4,-2.2,-31.7c0,0,-0.7,-15.3,-0.7,-38.4c0,0,0,-115.6,22.7,-186.5c0,0,22.8,-70.9,56.3,-107.4c0,0,32.1,-35.1,66,-49.3c0,0,34,-14.1,73.5,-14.1ZM431.2,-23c0,0,-75.4,0,-136.9,25.2c0,0,-61.6,25.4,-108.6,75.4c0,0,-57.4,60.4,-89.8,161.5c0,0,-32.5,101.1,-32.5,248.8c0,0,0,144.7,29.8,261.4c0,0,29.9,116.8,91.8,203.3c0,0,60.4,84.3,155.9,131.7c0,0,95.5,47.4,220.8,47.4c0,0,37.3,0,69.4,-3.8c0,0,32.1,-3.7,56.7,-11.9l0,-142.5l-6.7,0c0,0,-20.2,11.2,-58.2,20.5c0,0,-38.1,9.4,-81.3,9.4c0,0,-138.8,0,-224.2,-93.7c0,0,-85.4,-93.6,-101.1,-277.9c0,0,53,37.4,108.9,57.5c0,0,56,20.1,122.4,20.1c0,0,64.9,0,113.8,-13c0,0,48.8,-13.1,101.8,-52.6c0,0,61.2,-46.3,91,-117.1c0,0,29.8,-70.9,29.8,-166.4c0,0,0,-85.8,-28.3,-158.1c0,0,-28.4,-72.4,-76.1,-120.9c0,0,-50,-51.5,-111.9,-77.9c0,0,-61.9,-26.4,-136.5,-26.4Z" 
	id="f0_h"
	transform="scale(0.001,-0.001)" />

	<path d="M112.6,0l0,1110.8l201.5,0L591.6,492.4l267.8,618.4l205.1,0L1064.5,0L916.8,0l0,957.1L627.4,305.9l-89.5,0L250.6,957.1L250.6,0Z" 
	id="f0_z"
	transform="scale(0.001,-0.001)" />

	<path d="M139.5,0L648.3,980.2l-574.4,0l0,130.6l704.9,0l0,-166.4L298.4,0Z" 
	id="f0_i"
	transform="scale(0.001,-0.001)" />

	<path d="M41.8,-315.4c0,0,-23.1,0,-51.8,2.2c0,0,-28.7,2.2,-57,6.7l0,125.3l8.2,0c0,0,16.4,-3.7,36.2,-7c0,0,19.7,-3.4,37.5,-3.4c0,0,56,0,92.2,13.8c0,0,36.1,13.8,54,43.6c0,0,16.4,26.9,22,67.9c0,0,5.6,41.1,5.6,99.9l0,683.3L38,716.9l0,116.4l291,0l0,-857.1c0,0,0,-142.4,-76.5,-217c0,0,-76.5,-74.6,-210.7,-74.6ZM170.1,972.8l0,145.4l159.6,0l0,-145.4Z" 
	id="f0_1j"
	transform="scale(0.001,-0.001)" />

	<path d="M418.5,85.8c0,0,94,0,150.7,56.3c0,0,56.7,56.3,56.7,153.3c0,0,0,68.6,-26.9,108.9c0,0,-26.8,40.3,-103.7,82.1c0,0,-25.3,14.2,-67.5,30.6c0,0,-42.1,16.4,-95.1,38.8c0,0,-61.9,-41.1,-94.7,-101.1c0,0,-32.8,-60.1,-32.8,-136.9c0,0,0,-100.7,60.7,-166.4c0,0,60.8,-65.6,152.6,-65.6Zm75.3,543.1c0,0,64.9,50,88.1,102.5c0,0,23.1,52.6,23.1,120.5c0,0,0,74.6,-50,124.6c0,0,-50,50,-138.7,50c0,0,-81.3,0,-133.2,-44.8c0,0,-51.8,-44.7,-51.8,-120.8c0,0,0,-55.2,26.4,-93.3c0,0,26.5,-38,79.5,-68.6c0,0,23.1,-12.7,70.5,-35.1c0,0,47.3,-22.4,86.1,-35ZM417,-25.2c0,0,-82.8,0,-150.7,24.6c0,0,-67.9,24.5,-115.6,70.7c0,0,-47,44.8,-71.3,106.3c0,0,-24.2,61.6,-24.2,130.2c0,0,0,90.3,48.1,166c0,0,48.1,75.7,139.9,120.5l0,4.4c0,0,-82.1,47.8,-121.6,104.5c0,0,-39.5,56.7,-39.5,141.7c0,0,0,125.3,94.7,208.9c0,0,94.7,83.5,240.2,83.5c0,0,151.4,0,242.8,-79.4c0,0,91.4,-79.5,91.4,-203.3c0,0,0,-74.6,-43.6,-147.7c0,0,-43.7,-73.1,-125.7,-114.1l0,-4.5c0,0,97,-45.5,146.9,-110.4c0,0,50,-64.9,50,-167.1c0,0,0,-142.5,-103.3,-238.7c0,0,-103.3,-96.1,-258.5,-96.1Z" 
	id="f0_j"
	transform="scale(0.001,-0.001)" />

	<path d="M101.5,0l0,833.3l140.2,0l0,-92.5c0,0,55.2,55.2,109.3,85.4c0,0,54.1,30.2,119,30.2c0,0,73.8,0,130.9,-33.6c0,0,57.1,-33.5,86.9,-110.4c0,0,63.4,70.9,123.8,107.4c0,0,60.5,36.6,131.3,36.6c0,0,53.7,0,97.7,-16.8c0,0,44.1,-16.8,76.9,-54.1c0,0,33.6,-38,51.8,-94.7c0,0,18.3,-56.7,18.3,-142.5L1187.6,0L1047.4,0l0,481.9c0,0,0,57.5,-4.5,106.3c0,0,-4.5,48.9,-18.7,76.5c0,0,-14.9,29.8,-42.5,44c0,0,-27.6,14.2,-74.6,14.2c0,0,-43.2,0,-92.9,-26.5c0,0,-49.6,-26.5,-102.5,-76.5c0,0,0.7,-12.7,1.8,-30.2c0,0,1.1,-17.5,1.1,-41.4L714.6,0L574.4,0l0,481.9c0,0,0,57.5,-4.5,106.3c0,0,-4.4,48.9,-18.6,76.5c0,0,-14.9,29.8,-42.5,44c0,0,-27.6,14.2,-74.6,14.2c0,0,-45.5,0,-95.5,-28.4c0,0,-50,-28.3,-97,-72.3L241.7,0Z" 
	id="f0_1m"
	transform="scale(0.001,-0.001)" />

	<path d="M386.4,110.4c0,0,55.2,0,111.2,25c0,0,55.9,25,105.2,67.5l0,480.4c0,0,-52.3,25.4,-93.7,35.1c0,0,-41.4,9.7,-89.9,9.7c0,0,-108.1,0,-169.3,-80.9c0,0,-61.2,-81,-61.2,-233.9c0,0,0,-147,47,-224.9c0,0,47,-78,150.7,-78ZM353.6,-23c0,0,-67.9,0,-125.7,28.2c0,0,-57.8,28.4,-98.1,82.8c0,0,-41,55.2,-63.4,136.2c0,0,-22.4,80.9,-22.4,186.1c0,0,0,109.6,28.4,189.8c0,0,28.3,80.2,78.3,139.9c0,0,45.5,54.5,110,85.4c0,0,64.5,31,135.4,31c0,0,62.7,0,108.9,-13.8c0,0,46.3,-13.8,97.8,-42.9l0,361.1l140.2,0L743,0L602.8,0l0,85c0,0,-32.9,-27.6,-56.7,-45.5c0,0,-23.9,-17.9,-56,-32.8c0,0,-29.8,-14,-61.9,-21.9c0,0,-32.1,-7.8,-74.6,-7.8Z" 
	id="f0_1d"
	transform="scale(0.001,-0.001)" />

	<path d="M418.5,522.9c0,0,47.7,0,102.9,16.8c0,0,55.2,16.8,96.3,44.4c0,0,0.7,11.2,1.8,29.5c0,0,1.2,18.2,1.2,40.6c0,0,0,113.4,-20.9,184.7c0,0,-20.9,71.2,-57.5,110c0,0,-32.8,35.8,-66.4,49.2c0,0,-33.5,13.5,-73.8,13.5c0,0,-91.8,0,-146.2,-65.7c0,0,-54.5,-65.6,-54.5,-190.2c0,0,0,-70.1,17.9,-115.6c0,0,17.9,-45.5,58.2,-78.4c0,0,28.4,-23.1,64.2,-30.9c0,0,35.8,-7.9,76.8,-7.9ZM272.3,-21.5c0,0,-29.9,0,-63.4,3.3c0,0,-33.6,3.4,-62.7,12.3l0,142.4l7.5,0c0,0,18.6,-10.4,58.2,-20.1c0,0,39.5,-9.7,80.5,-9.7c0,0,146.2,0,229.8,96.2c0,0,83.5,96.2,94.7,275.3c0,0,-59.6,-40.3,-113.7,-58.9c0,0,-54.1,-18.7,-117.5,-18.7c0,0,-61.9,0,-112.7,13.4c0,0,-50.7,13.5,-102.2,52.2c0,0,-59.7,45.5,-90.2,115.3c0,0,-30.6,69.7,-30.6,168.2c0,0,0,85.8,27.9,156.7c0,0,28,70.8,76.5,122.3c0,0,46.3,49.3,113,76.8c0,0,66.8,27.7,135.4,27.7c0,0,76.9,0,139.1,-25.8c0,0,62.4,-25.7,107.8,-74.2c0,0,57.5,-61.2,89.2,-160.4c0,0,31.7,-99.2,31.7,-250.6c0,0,0,-138.1,-31,-261.5c0,0,-30.9,-123.5,-91.3,-204.8c0,0,-64.2,-86.5,-154.1,-132c0,0,-89.9,-45.4,-221.9,-45.4Z" 
	id="f0_k"
	transform="scale(0.001,-0.001)" />

	<path d="M432.7,-18.5c0,0,-85.8,0,-157.4,26.3c0,0,-71.6,26.5,-123.1,80.2c0,0,-51.5,53.7,-79.8,135.4c0,0,-28.4,81.7,-28.4,192.1c0,0,0,109.7,29.5,189.5c0,0,29.4,79.8,78.7,134.3c0,0,49.2,54.4,122.7,83.9c0,0,73.5,29.5,157.8,29.5c0,0,68.6,0,132.4,-19.4c0,0,63.8,-19.4,113.8,-44.8l0,-157.4l-8.3,0c0,0,-14.9,12.7,-38.4,29.1c0,0,-23.5,16.4,-57.1,33.6c0,0,-29,14.9,-68.6,26.1c0,0,-39.5,11.2,-76.1,11.2c0,0,-108.9,0,-174.9,-82.5c0,0,-66,-82.4,-66,-233.1c0,0,0,-147.7,63.8,-230.1c0,0,63.7,-82.5,177.1,-82.5c0,0,68.7,0,130.6,28.4c0,0,61.9,28.3,109.6,73.1l8.3,0L678.9,47c0,0,-20.9,-9.7,-52.3,-23.5c0,0,-31.3,-13.8,-56.7,-20.5c0,0,-35.8,-10.3,-64.1,-15.9c0,0,-28.4,-5.6,-73.1,-5.6Z" 
	id="f0_1c"
	transform="scale(0.001,-0.001)" />

	<path d="M112.6,0l0,1110.8l147.7,0l0,-979.5l496.1,0L756.4,0Z" 
	id="f0_y"
	transform="scale(0.001,-0.001)" />

	<path d="M357.3,-23c0,0,-54.4,0,-102.5,17.9c0,0,-48.2,17.8,-84,56.6c0,0,-35.8,38.8,-55.5,97.7c0,0,-19.8,58.9,-19.8,143.2l0,540.9l140.2,0l0,-474.5c0,0,0,-66.4,4.9,-110c0,0,4.8,-43.6,22,-76.5c0,0,17.2,-32,46.6,-47c0,0,29.5,-14.9,84.7,-14.9c0,0,51.4,0,109.6,29.1c0,0,58.2,29.1,106.7,71.6l0,622.2l140.3,0L750.5,0L610.2,0l0,92.5c0,0,-64.9,-56.7,-123.1,-86.1c0,0,-58.2,-29.4,-129.8,-29.4Z" 
	id="f0_1u"
	transform="scale(0.001,-0.001)" />

	<path d="M380.4,126.1c0,0,97,0,153,8.9c0,0,55.9,9,98.4,38.1c0,0,41.8,29.1,61.2,66c0,0,19.4,36.9,19.4,95.9c0,0,0,62.6,-17.9,103.3c0,0,-17.9,40.6,-72.3,69c0,0,-35.1,18.6,-76.5,23.8c0,0,-41.4,5.3,-117.5,5.3l-167.9,0l0,-410.3Zm47.8,533.4c0,0,69.4,0,102.2,7c0,0,32.8,7.1,67.9,29.5c0,0,33.5,21.6,47.7,56.7c0,0,14.2,35.1,14.2,86.5c0,0,0,40.3,-13.4,69.8c0,0,-13.5,29.5,-43.3,46.6c0,0,-35.8,20.1,-79.8,24.6c0,0,-44,4.5,-121.6,4.5l-141.8,0l0,-325.2ZM112.6,0l0,1110.8l294.7,0c0,0,118.6,0,177.9,-7.9c0,0,59.3,-7.8,113.8,-36.9c0,0,59.7,-32.1,87.3,-83.9c0,0,27.6,-51.9,27.6,-122c0,0,0,-78.3,-41.4,-140.2c0,0,-41.4,-61.9,-114.5,-97l0,-6c0,0,99.2,-26.8,153.6,-98.1c0,0,54.5,-71.2,54.5,-177.9c0,0,0,-82.8,-31.3,-146.2c0,0,-31.4,-63.4,-84.3,-104.4c0,0,-62.7,-49.3,-134.3,-69.8C616.2,20.5,544.6,0,431.2,0Z" 
	id="f0_o"
	transform="scale(0.001,-0.001)" />

	<path d="M577.4,-21.5c0,0,-117.9,0,-215.6,35.7c0,0,-97.7,35.8,-167.8,108.9c0,0,-70.2,73.8,-107.5,182.7c0,0,-37.3,109,-37.3,250.7c0,0,0,134.3,37.7,240.6c0,0,37.7,106.3,107.8,181.6c0,0,67.9,73.1,167.1,112.7c0,0,99.2,39.5,217.1,39.5c0,0,55.9,0,107.4,-8.2c0,0,51.5,-8.2,98.5,-22.4c0,0,37.3,-11.2,83.1,-30.9c0,0,45.9,-19.8,74.3,-34l0,-178.3l-12.7,0c0,0,-27.6,24.7,-57.1,46.7c0,0,-29.4,22,-83.1,47.3c0,0,-44.8,22.4,-103,37.3c0,0,-58.2,15,-125.3,15c0,0,-160.4,0,-259.2,-120.9c0,0,-98.9,-120.8,-98.9,-321.5c0,0,0,-111.9,26.1,-195.5c0,0,26.1,-83.5,75.4,-141.7c0,0,47.7,-57.4,115.2,-87.6c0,0,67.5,-30.3,151.8,-30.3c0,0,62.7,0,124.6,9c0,0,61.9,8.9,104.4,26.8l0,287.2l-256.6,0l0,129.8l402.9,0l0,-484.8c0,0,-28.4,-12.7,-75.8,-32.1c0,0,-47.3,-19.4,-88.4,-30.6c0,0,-54.4,-16.3,-98.4,-24.5c0,0,-44,-8.2,-106.7,-8.2Z" 
	id="f0_t"
	transform="scale(0.001,-0.001)" />

	<path d="M101.5,0l0,1160.8l140.2,0l0,-420c0,0,62.7,55.9,123.8,85.7c0,0,61.2,29.9,129.1,29.9c0,0,123.1,0,192.5,-80.9c0,0,69.3,-81,69.3,-234.7L756.4,0L616.2,0l0,474.5c0,0,0,57.4,-5.6,107c0,0,-5.6,49.6,-21.3,79.4c0,0,-17.1,31.4,-47.7,46.7c0,0,-30.6,15.3,-83.6,15.3c0,0,-52.2,0,-107.8,-28c0,0,-55.5,-28,-108.5,-72.7L241.7,0Z" 
	id="f0_1h"
	transform="scale(0.001,-0.001)" />

	<path d="M625.9,436.4L454.3,960.1L283.5,436.4ZM-7.3,0L367,1110.8l182.1,0L923.5,0L767.6,0L666.9,310.3l-424.5,0L141.7,0Z" 
	id="f0_n"
	transform="scale(0.001,-0.001)" />

	<path d="M158.2,-307.2L307.3,40.3L4.5,833.3l151.4,0l227.5,-617l226.8,617l146.2,0L308.1,-307.2Z" 
	id="f0_1y"
	transform="scale(0.001,-0.001)" />


</defs>

<!-- Any embedded fonts defined here -->
<style type="text/css" ><![CDATA[

@font-face {
	font-family: Tahoma_a;
	src: url("fonts/Tahoma_a.woff") format("woff");
}

]]></style>

</svg>
