<?xml version="1.0" encoding="UTF-8" standalone="no"?>
<svg
   xmlns:dc="http://purl.org/dc/elements/1.1/"
   xmlns:cc="http://creativecommons.org/ns#"
   xmlns:rdf="http://www.w3.org/1999/02/22-rdf-syntax-ns#"
   xmlns:svg="http://www.w3.org/2000/svg"
   xmlns="http://www.w3.org/2000/svg"
   xmlns:sodipodi="http://sodipodi.sourceforge.net/DTD/sodipodi-0.dtd"
   xmlns:inkscape="http://www.inkscape.org/namespaces/inkscape"
   viewBox="0 0 562.5 162.5"
   id="svg2"
   version="1.1"
   inkscape:version="0.91 r13725"
   sodipodi:docname="dice-26772.svg"
   inkscape:export-filename="/Users/imac27/test-web/dice-roll/images/red-dice.png"
   inkscape:export-xdpi="320"
   inkscape:export-ydpi="320">
  <metadata
     id="metadata74">
    <rdf:RDF>
      <cc:Work
         rdf:about="">
        <dc:format>image/svg+xml</dc:format>
        <dc:type
           rdf:resource="http://purl.org/dc/dcmitype/StillImage" />
      </cc:Work>
    </rdf:RDF>
  </metadata>
  <defs
     id="defs72" />
  <sodipodi:namedview
     pagecolor="#ffffff"
     bordercolor="#666666"
     borderopacity="1"
     objecttolerance="10"
     gridtolerance="10"
     guidetolerance="10"
     inkscape:pageopacity="0"
     inkscape:pageshadow="2"
     inkscape:window-width="2560"
     inkscape:window-height="1331"
     id="namedview70"
     showgrid="false"
     inkscape:zoom="4"
     inkscape:cx="204.7444"
     inkscape:cy="117.26752"
     inkscape:window-x="0"
     inkscape:window-y="1"
     inkscape:window-maximized="1"
     inkscape:current-layer="layer3" />
  <g
     inkscape:groupmode="layer"
     id="layer3"
     inkscape:label="dice"
     style="display:inline">
    <path
       style="fill:#1700ff;fill-opacity:0;fill-rule:evenodd;stroke:#000000;stroke-width:1.5"
       inkscape:connector-curvature="0"
       id="path6"
       d="m 462.14,43.43 25,0 a 25,25 0 0 1 25,25 l 0,25 a 25,25 0 0 1 -25,25 l -25,0 a 25,25 0 0 1 -25,-25 l 0,-25 a 25,25 0 0 1 25,-25" />
    <path
       style="fill:#ffffff;fill-opacity:1;fill-rule:evenodd;stroke:#000000;stroke-width:1.5"
       inkscape:connector-curvature="0"
       id="path8"
       d="m 462.64,62.68 a 6.25,6.25 0 0 1 -12.5,0 6.25,6.25 0 1 1 12.5,0 z" />
    <path
       style="fill:#ffffff;fill-opacity:1;fill-rule:evenodd;stroke:#000000;stroke-width:1.5"
       inkscape:connector-curvature="0"
       id="path10"
       d="m 462.64,98.68 a 6.25,6.25 0 0 1 -12.5,0 6.25,6.25 0 1 1 12.5,0 z" />
    <path
       style="fill:#ffffff;fill-opacity:1;fill-rule:evenodd;stroke:#000000;stroke-width:1.5"
       inkscape:connector-curvature="0"
       id="path12"
       d="m 462.64,80.68 a 6.25,6.25 0 0 1 -12.5,0 6.25,6.25 0 1 1 12.5,0 z" />
    <path
       style="fill:#ffffff;fill-opacity:1;fill-rule:evenodd;stroke:#000000;stroke-width:1.5"
       inkscape:connector-curvature="0"
       id="path14"
       d="m 498.64,62.68 a 6.25,6.25 0 0 1 -12.5,0 6.25,6.25 0 1 1 12.5,0 z" />
    <path
       style="fill:#ffffff;fill-opacity:1;fill-rule:evenodd;stroke:#000000;stroke-width:1.5"
       inkscape:connector-curvature="0"
       id="path16"
       d="m 498.64,98.68 a 6.25,6.25 0 0 1 -12.5,0 6.25,6.25 0 1 1 12.5,0 z" />
    <path
       style="fill:#ffffff;fill-opacity:1;fill-rule:evenodd;stroke:#000000;stroke-width:1.5"
       inkscape:connector-curvature="0"
       id="path18"
       d="m 498.64,80.68 a 6.25,6.25 0 0 1 -12.5,0 6.25,6.25 0 1 1 12.5,0 z" />
    <path
       style="fill:#1700ff;fill-opacity:0;fill-rule:evenodd;stroke:#000000;stroke-width:1.5"
       inkscape:connector-curvature="0"
       id="path22"
       d="m 383.14,43.433 25,0 a 25,25 0 0 1 25,25 l 0,25 a 25,25 0 0 1 -25,25 l -25,0 a 25,25 0 0 1 -25,-25 l 0,-25 a 25,25 0 0 1 25,-25" />
    <path
       style="fill:#ffffff;fill-opacity:1;fill-rule:evenodd;stroke:#000000;stroke-width:1.5"
       inkscape:connector-curvature="0"
       id="path24"
       d="m 383.64,62.683 a 6.25,6.25 0 0 1 -12.5,0 6.25,6.25 0 1 1 12.5,0 z" />
    <path
       style="fill:#ffffff;fill-opacity:1;fill-rule:evenodd;stroke:#000000;stroke-width:1.5"
       inkscape:connector-curvature="0"
       id="path26"
       d="m 383.64,98.683 a 6.25,6.25 0 0 1 -12.5,0 6.25,6.25 0 1 1 12.5,0 z" />
    <path
       style="fill:#ffffff;fill-opacity:1;fill-rule:evenodd;stroke:#000000;stroke-width:1.5"
       inkscape:connector-curvature="0"
       id="path28"
       d="m 419.64,62.683 a 6.25,6.25 0 0 1 -12.5,0 6.25,6.25 0 1 1 12.5,0 z" />
    <path
       style="fill:#ffffff;fill-opacity:1;fill-rule:evenodd;stroke:#000000;stroke-width:1.5"
       inkscape:connector-curvature="0"
       id="path30"
       d="m 419.64,98.683 a 6.25,6.25 0 0 1 -12.5,0 6.25,6.25 0 1 1 12.5,0 z" />
    <path
       style="fill:#ffffff;fill-opacity:1;fill-rule:evenodd;stroke:#000000;stroke-width:1.5"
       inkscape:connector-curvature="0"
       id="path32"
       d="m 401.64,80.683 a 6.25,6.25 0 0 1 -12.5,0 6.25,6.25 0 1 1 12.5,0 z" />
    <path
       style="fill:#1700ff;fill-opacity:0;fill-rule:evenodd;stroke:#000000;stroke-width:1.5"
       inkscape:connector-curvature="0"
       id="path36"
       d="m 304.143,43.433 25,0 a 25,25 0 0 1 25,25 l 0,25 a 25,25 0 0 1 -25,25 l -25,0 a 25,25 0 0 1 -25,-25 l 0,-25 a 25,25 0 0 1 25,-25" />
    <path
       style="fill:#ffffff;fill-opacity:1;fill-rule:evenodd;stroke:#000000;stroke-width:1.5"
       inkscape:connector-curvature="0"
       id="path38"
       d="m 304.643,62.683 a 6.25,6.25 0 0 1 -12.5,0 6.25,6.25 0 1 1 12.5,0 z" />
    <path
       style="fill:#ffffff;fill-opacity:1;fill-rule:evenodd;stroke:#000000;stroke-width:1.5"
       inkscape:connector-curvature="0"
       id="path40"
       d="m 304.643,98.683 a 6.25,6.25 0 0 1 -12.5,0 6.25,6.25 0 1 1 12.5,0 z" />
    <path
       style="fill:#ffffff;fill-opacity:1;fill-rule:evenodd;stroke:#000000;stroke-width:1.5"
       inkscape:connector-curvature="0"
       id="path42"
       d="m 340.643,62.683 a 6.25,6.25 0 0 1 -12.5,0 6.25,6.25 0 1 1 12.5,0 z" />
    <path
       style="fill:#ffffff;fill-opacity:1;fill-rule:evenodd;stroke:#000000;stroke-width:1.5"
       inkscape:connector-curvature="0"
       id="path44"
       d="m 340.643,98.683 a 6.25,6.25 0 0 1 -12.5,0 6.25,6.25 0 1 1 12.5,0 z" />
    <path
       style="fill:#1700ff;fill-opacity:0;fill-rule:evenodd;stroke:#000000;stroke-width:1.5"
       inkscape:connector-curvature="0"
       id="path48"
       d="m 225.1428,43.43409 25,0 a 25,25 0 0 1 25,25 l 0,25 a 25,25 0 0 1 -25,25 l -25,0 a 25,25 0 0 1 -25,-25 l 0,-25 a 25,25 0 0 1 25,-25" />
    <path
       style="fill:#ffffff;fill-opacity:1;fill-rule:evenodd;stroke:#000000;stroke-width:1.5"
       inkscape:connector-curvature="0"
       id="path50"
       d="m 225.6428,62.683 a 6.25,6.25 0 0 1 -12.5,0 6.25,6.25 0 1 1 12.5,0 z" />
    <path
       style="fill:#ffffff;fill-opacity:1;fill-rule:evenodd;stroke:#000000;stroke-width:1.5"
       inkscape:connector-curvature="0"
       id="path52"
       d="m 261.6428,98.683 a 6.25,6.25 0 0 1 -12.5,0 6.25,6.25 0 1 1 12.5,0 z" />
    <path
       style="fill:#ffffff;fill-opacity:1;fill-rule:evenodd;stroke:#000000;stroke-width:1.5"
       inkscape:connector-curvature="0"
       id="path54"
       d="m 243.6428,80.683 a 6.25,6.25 0 0 1 -12.5,0 6.25,6.25 0 1 1 12.5,0 z" />
    <path
       style="fill:#1700ff;fill-opacity:0;fill-rule:evenodd;stroke:#000000;stroke-width:1.5"
       inkscape:connector-curvature="0"
       id="path58"
       d="m 146.14,43.434 25,0 a 25,25 0 0 1 25,25 l 0,25 a 25,25 0 0 1 -25,25 l -25,0 a 25,25 0 0 1 -25,-25 l 0,-25 a 25,25 0 0 1 25,-25" />
    <path
       style="fill:#ffffff;fill-opacity:1;fill-rule:evenodd;stroke:#000000;stroke-width:1.5"
       inkscape:connector-curvature="0"
       id="path60"
       d="m 146.64,62.683 a 6.25,6.25 0 0 1 -12.5,0 6.25,6.25 0 1 1 12.5,0 z" />
    <path
       style="fill:#ffffff;fill-opacity:1;fill-rule:evenodd;stroke:#000000;stroke-width:1.5"
       inkscape:connector-curvature="0"
       id="path62"
       d="m 182.64,98.683 a 6.25,6.25 0 0 1 -12.5,0 6.25,6.25 0 1 1 12.5,0 z" />
    <path
       style="fill:#1700ff;fill-opacity:0;fill-rule:evenodd;stroke:#000000;stroke-width:1.5"
       inkscape:connector-curvature="0"
       id="path66"
       d="m 67.14,43.433 25,0 a 25,25 0 0 1 25,25 l 0,25 a 25,25 0 0 1 -25,25 l -25,0 a 25,25 0 0 1 -25,-25 l 0,-25 a 25,25 0 0 1 25,-25" />
    <path
       style="fill:#ffffff;fill-opacity:1;fill-rule:evenodd;stroke:#000000;stroke-width:1.5"
       inkscape:connector-curvature="0"
       id="path68"
       d="m 85.64,80.683 a 6.25,6.25 0 0 1 -12.5,0 6.25,6.25 0 1 1 12.5,0 z" />
  </g>
  <g
     inkscape:groupmode="layer"
     id="layer4"
     inkscape:label="dots"
     style="display:inline" />
</svg>
